<svg width="315" height="321" viewBox="0 0 315 321" fill="none" xmlns="http://www.w3.org/2000/svg">
<path d="M7 247.881H308V296.227C308 307.272 299.046 316.227 288 316.227H27C15.9543 316.227 7 307.272 7 296.227V247.881Z" fill="#001E50" fill-opacity="0.5"/>
<g filter="url(#filter0_d_9_40)">
<g clip-path="url(#clip0_9_40)">
<rect x="16.5428" y="14.662" width="268.714" height="172.161" rx="10" fill="#001651"/>
<rect x="29.5" y="164.79" width="45" height="12" rx="6" stroke="white"/>
<path d="M39 168.54H42" stroke="white" stroke-linecap="round"/>
<path d="M36 170.54L41 170.54" stroke="white" stroke-linecap="round"/>
<path d="M35 173.04L38 173.04" stroke="white" stroke-linecap="round"/>
<path d="M47.4167 171.022H49.5107V171.682H47.4167V171.022ZM47.4827 173.29H46.7027V169.09H49.7687V169.744H47.4827V173.29ZM50.3924 173.29V170.086H51.1064V170.968L51.0224 170.71C51.1184 170.494 51.2684 170.33 51.4724 170.218C51.6804 170.106 51.9384 170.05 52.2464 170.05V170.764C52.2144 170.756 52.1844 170.752 52.1564 170.752C52.1284 170.748 52.1004 170.746 52.0724 170.746C51.7884 170.746 51.5624 170.83 51.3944 170.998C51.2264 171.162 51.1424 171.408 51.1424 171.736V173.29H50.3924ZM54.6281 173.29V172.642L54.5861 172.504V171.37C54.5861 171.15 54.5201 170.98 54.3881 170.86C54.2561 170.736 54.0561 170.674 53.7881 170.674C53.6081 170.674 53.4301 170.702 53.2541 170.758C53.0821 170.814 52.9361 170.892 52.8161 170.992L52.5221 170.446C52.6941 170.314 52.8981 170.216 53.1341 170.152C53.3741 170.084 53.6221 170.05 53.8781 170.05C54.3421 170.05 54.7001 170.162 54.9521 170.386C55.2081 170.606 55.3361 170.948 55.3361 171.412V173.29H54.6281ZM53.6201 173.332C53.3801 173.332 53.1701 173.292 52.9901 173.212C52.8101 173.128 52.6701 173.014 52.5701 172.87C52.4741 172.722 52.4261 172.556 52.4261 172.372C52.4261 172.192 52.4681 172.03 52.5521 171.886C52.6401 171.742 52.7821 171.628 52.9781 171.544C53.1741 171.46 53.4341 171.418 53.7581 171.418H54.6881V171.916H53.8121C53.5561 171.916 53.3841 171.958 53.2961 172.042C53.2081 172.122 53.1641 172.222 53.1641 172.342C53.1641 172.478 53.2181 172.586 53.3261 172.666C53.4341 172.746 53.5841 172.786 53.7761 172.786C53.9601 172.786 54.1241 172.744 54.2681 172.66C54.4161 172.576 54.5221 172.452 54.5861 172.288L54.7121 172.738C54.6401 172.926 54.5101 173.072 54.3221 173.176C54.1381 173.28 53.9041 173.332 53.6201 173.332ZM60.3426 170.05C60.5986 170.05 60.8246 170.1 61.0206 170.2C61.2206 170.3 61.3766 170.454 61.4886 170.662C61.6006 170.866 61.6566 171.13 61.6566 171.454V173.29H60.9066V171.55C60.9066 171.266 60.8446 171.054 60.7206 170.914C60.5966 170.774 60.4186 170.704 60.1866 170.704C60.0226 170.704 59.8766 170.74 59.7486 170.812C59.6246 170.884 59.5266 170.99 59.4546 171.13C59.3866 171.27 59.3526 171.448 59.3526 171.664V173.29H58.6026V171.55C58.6026 171.266 58.5406 171.054 58.4166 170.914C58.2926 170.774 58.1146 170.704 57.8826 170.704C57.7186 170.704 57.5726 170.74 57.4446 170.812C57.3206 170.884 57.2226 170.99 57.1506 171.13C57.0826 171.27 57.0486 171.448 57.0486 171.664V173.29H56.2986V170.086H57.0126V170.938L56.8866 170.686C56.9946 170.478 57.1506 170.32 57.3546 170.212C57.5626 170.104 57.7986 170.05 58.0626 170.05C58.3626 170.05 58.6226 170.124 58.8426 170.272C59.0666 170.42 59.2146 170.644 59.2866 170.944L58.9926 170.842C59.0966 170.602 59.2686 170.41 59.5086 170.266C59.7486 170.122 60.0266 170.05 60.3426 170.05ZM64.1269 173.332C63.7709 173.332 63.4589 173.262 63.1909 173.122C62.9269 172.978 62.7209 172.782 62.5729 172.534C62.4289 172.286 62.3569 172.004 62.3569 171.688C62.3569 171.368 62.4269 171.086 62.5669 170.842C62.7109 170.594 62.9069 170.4 63.1549 170.26C63.4069 170.12 63.6929 170.05 64.0129 170.05C64.3249 170.05 64.6029 170.118 64.8469 170.254C65.0909 170.39 65.2829 170.582 65.4229 170.83C65.5629 171.078 65.6329 171.37 65.6329 171.706C65.6329 171.738 65.6309 171.774 65.6269 171.814C65.6269 171.854 65.6249 171.892 65.6209 171.928H62.9509V171.43H65.2249L64.9309 171.586C64.9349 171.402 64.8969 171.24 64.8169 171.1C64.7369 170.96 64.6269 170.85 64.4869 170.77C64.3509 170.69 64.1929 170.65 64.0129 170.65C63.8289 170.65 63.6669 170.69 63.5269 170.77C63.3909 170.85 63.2829 170.962 63.2029 171.106C63.1269 171.246 63.0889 171.412 63.0889 171.604V171.724C63.0889 171.916 63.1329 172.086 63.2209 172.234C63.3089 172.382 63.4329 172.496 63.5929 172.576C63.7529 172.656 63.9369 172.696 64.1449 172.696C64.3249 172.696 64.4869 172.668 64.6309 172.612C64.7749 172.556 64.9029 172.468 65.0149 172.348L65.4169 172.81C65.2729 172.978 65.0909 173.108 64.8709 173.2C64.6549 173.288 64.4069 173.332 64.1269 173.332Z" fill="white"/>
<g opacity="0.58">
<path d="M16.5428 24.662C16.5428 19.1391 21.02 14.662 26.5428 14.662H291.543C297.066 14.662 301.543 19.1391 301.543 24.662V133.662H16.5428V24.662Z" fill="#6BA6FF"/>
</g>
<rect x="27" y="145.29" width="58" height="11" rx="5.5" fill="#6BA6FF" fill-opacity="0.5"/>
<rect x="91" y="145.29" width="106" height="11" rx="5.5" fill="#6BA6FF" fill-opacity="0.5"/>
<rect x="81" y="165.29" width="49" height="9" rx="4.5" fill="#6BA6FF" fill-opacity="0.5"/>
<rect x="241.543" y="147.662" width="49" height="9" rx="4.5" fill="#6BA6FF" fill-opacity="0.5"/>
<g filter="url(#filter1_d_9_40)">
<path d="M56.5428 54.662C56.5428 48.5869 61.4677 43.662 67.5428 43.662H250.543C256.618 43.662 261.543 48.5869 261.543 54.662V134.662H56.5428V54.662Z" fill="#002075"/>
</g>
<circle cx="68.5428" cy="53.662" r="3" fill="#6BA6FF"/>
<circle cx="77.5428" cy="53.662" r="3" fill="#6BA6FF"/>
<circle cx="86.5428" cy="53.662" r="3" fill="#6BA6FF"/>
<rect x="63.5428" y="63.662" width="189" height="2" rx="1" fill="#6BA6FF" fill-opacity="0.5"/>
<path d="M137.052 118.398L110.556 106.75C108.892 106.067 108.06 104.894 108.06 103.23C108.06 102.419 108.273 101.737 108.7 101.182C109.127 100.627 109.745 100.179 110.556 99.838L137.052 88.126C137.649 87.87 138.183 87.8273 138.652 87.998C139.164 88.126 139.569 88.382 139.868 88.766C140.167 89.15 140.337 89.598 140.38 90.11C140.423 90.622 140.316 91.1127 140.06 91.582C139.847 92.0087 139.42 92.35 138.78 92.606L110.492 104.894V101.694L138.78 113.982C139.42 114.238 139.847 114.601 140.06 115.07C140.316 115.497 140.423 115.966 140.38 116.478C140.337 116.947 140.167 117.395 139.868 117.822C139.569 118.206 139.164 118.462 138.652 118.59C138.183 118.718 137.649 118.654 137.052 118.398ZM147.523 123.71C147.31 124.393 146.968 124.883 146.499 125.182C146.03 125.481 145.518 125.63 144.963 125.63C144.408 125.63 143.896 125.481 143.427 125.182C143 124.926 142.702 124.542 142.531 124.03C142.318 123.518 142.318 122.899 142.531 122.174L157.571 75.582C157.784 74.8993 158.126 74.4087 158.595 74.11C159.064 73.7687 159.555 73.6193 160.067 73.662C160.622 73.662 161.112 73.8113 161.539 74.11C162.008 74.366 162.328 74.75 162.499 75.262C162.712 75.7313 162.734 76.3287 162.563 77.054L147.523 123.71ZM168.123 118.398C167.526 118.654 166.971 118.718 166.459 118.59C165.99 118.462 165.606 118.206 165.307 117.822C165.008 117.395 164.838 116.947 164.795 116.478C164.752 115.966 164.859 115.497 165.115 115.07C165.371 114.601 165.776 114.238 166.331 113.982L194.683 101.694V104.894L166.331 92.606C165.776 92.35 165.371 92.0087 165.115 91.582C164.859 91.1127 164.752 90.622 164.795 90.11C164.838 89.598 165.008 89.15 165.307 88.766C165.606 88.382 165.99 88.126 166.459 87.998C166.971 87.8273 167.526 87.87 168.123 88.126L194.619 99.838C196.283 100.521 197.115 101.651 197.115 103.23C197.115 104.041 196.902 104.745 196.475 105.342C196.048 105.939 195.43 106.409 194.619 106.75L168.123 118.398Z" fill="#355EA8"/>
</g>
<rect x="17.5428" y="15.662" width="266.714" height="170.161" rx="9" stroke="#0065FF" stroke-opacity="0.5" stroke-width="2"/>
</g>
<g filter="url(#filter2_d_9_40)">
<rect x="174.5" y="28.6258" width="128.787" height="201.939" rx="10.5" fill="#001651" stroke="#012996"/>
<g filter="url(#filter3_d_9_40)">
<path d="M183.473 45.7571C183.473 41.8911 186.607 38.7571 190.473 38.7571H283.313C289.388 38.7571 294.313 43.6819 294.313 49.7571V114.134H183.473V45.7571Z" fill="#002075"/>
</g>
<rect x="188.21" y="53.6044" width="102.313" height="1.30523" rx="0.652617" fill="#6BA6FF" fill-opacity="0.5"/>
<rect x="192" y="66.1667" width="30.3151" height="1.14208" rx="0.57104" fill="#6BA6FF" fill-opacity="0.5"/>
<rect x="192" y="79.8724" width="19.8943" height="1.14208" rx="0.57104" fill="#6BA6FF" fill-opacity="0.5"/>
<rect x="192" y="98.1457" width="19.8943" height="1.14208" rx="0.57104" fill="#6BA6FF" fill-opacity="0.5"/>
<rect x="192" y="73.02" width="30.3151" height="1.14208" rx="0.57104" fill="#6BA6FF" fill-opacity="0.5"/>
<rect x="192" y="86.7257" width="19.8943" height="1.14208" rx="0.57104" fill="#6BA6FF" fill-opacity="0.5"/>
<rect x="192" y="102.714" width="19.8943" height="1.14208" rx="0.57104" fill="#6BA6FF" fill-opacity="0.5"/>
<rect x="195.789" y="68.4515" width="30.3151" height="1.14208" rx="0.57104" fill="#6BA6FF" fill-opacity="0.5"/>
<rect x="192" y="68.4515" width="2.84204" height="1.14208" rx="0.57104" fill="#6BA6FF" fill-opacity="0.5"/>
<rect x="192" y="75.3038" width="2.84204" height="1.14208" rx="0.57104" fill="#6BA6FF" fill-opacity="0.5"/>
<rect x="192" y="93.5771" width="2.84204" height="1.14208" rx="0.57104" fill="#6BA6FF" fill-opacity="0.5"/>
<rect x="193.894" y="82.1572" width="20.8416" height="1.14208" rx="0.57104" fill="#6BA6FF" fill-opacity="0.5"/>
<rect x="193.894" y="100.429" width="20.8416" height="1.14208" rx="0.57104" fill="#6BA6FF" fill-opacity="0.5"/>
<rect x="195.789" y="75.3038" width="30.3151" height="1.14208" rx="0.57104" fill="#6BA6FF" fill-opacity="0.5"/>
<rect x="195.789" y="93.5771" width="30.3151" height="1.14208" rx="0.57104" fill="#6BA6FF" fill-opacity="0.5"/>
<rect x="194.842" y="89.0085" width="19.8943" height="1.14208" rx="0.57104" fill="#6BA6FF" fill-opacity="0.5"/>
<rect x="194.842" y="104.998" width="19.8943" height="1.14208" rx="0.57104" fill="#6BA6FF" fill-opacity="0.5"/>
<rect x="192" y="70.7362" width="13.2629" height="1.14208" rx="0.57104" fill="#6BA6FF" fill-opacity="0.5"/>
<rect x="192" y="84.44" width="8.52612" height="1.14208" rx="0.57104" fill="#6BA6FF" fill-opacity="0.5"/>
<rect x="192" y="77.5886" width="13.2629" height="1.14208" rx="0.57104" fill="#6BA6FF" fill-opacity="0.5"/>
<rect x="192" y="95.8619" width="13.2629" height="1.14208" rx="0.57104" fill="#6BA6FF" fill-opacity="0.5"/>
<rect x="192" y="91.2933" width="8.52612" height="1.14208" rx="0.57104" fill="#6BA6FF" fill-opacity="0.5"/>
<rect x="206.21" y="70.7362" width="13.2629" height="1.14208" rx="0.57104" fill="#6BA6FF" fill-opacity="0.5"/>
<rect x="201.473" y="84.44" width="8.52612" height="1.14208" rx="0.57104" fill="#6BA6FF" fill-opacity="0.5"/>
<rect x="206.21" y="77.5886" width="16.1049" height="1.14208" rx="0.57104" fill="#6BA6FF" fill-opacity="0.5"/>
<rect x="206.21" y="95.8619" width="16.1049" height="1.14208" rx="0.57104" fill="#6BA6FF" fill-opacity="0.5"/>
<rect x="201.473" y="91.2933" width="8.52612" height="1.14208" rx="0.57104" fill="#6BA6FF" fill-opacity="0.5"/>
<rect x="213.788" y="79.8714" width="19.8943" height="1.14208" rx="0.57104" fill="#6BA6FF" fill-opacity="0.5"/>
<rect x="213.788" y="98.1457" width="19.8943" height="1.14208" rx="0.57104" fill="#6BA6FF" fill-opacity="0.5"/>
<rect x="212.841" y="86.7247" width="20.8416" height="1.14208" rx="0.57104" fill="#6BA6FF" fill-opacity="0.5"/>
<rect x="212.841" y="102.714" width="20.8416" height="1.14208" rx="0.57104" fill="#6BA6FF" fill-opacity="0.5"/>
<rect x="215.683" y="82.1562" width="20.8416" height="1.14208" rx="0.57104" fill="#6BA6FF" fill-opacity="0.5"/>
<rect x="215.683" y="100.429" width="20.8416" height="1.14208" rx="0.57104" fill="#6BA6FF" fill-opacity="0.5"/>
<rect x="215.683" y="89.0075" width="20.8416" height="1.14208" rx="0.57104" fill="#6BA6FF" fill-opacity="0.5"/>
<rect x="215.683" y="104.998" width="20.8416" height="1.14208" rx="0.57104" fill="#6BA6FF" fill-opacity="0.5"/>
<rect x="210.946" y="84.439" width="11.3682" height="1.14208" rx="0.57104" fill="#6BA6FF" fill-opacity="0.5"/>
<rect x="211.894" y="91.2923" width="10.4208" height="1.14208" rx="0.57104" fill="#6BA6FF" fill-opacity="0.5"/>
<rect x="223.262" y="84.439" width="8.52612" height="1.14208" rx="0.57104" fill="#6BA6FF" fill-opacity="0.5"/>
<rect x="223.262" y="91.2923" width="8.52612" height="1.14208" rx="0.57104" fill="#6BA6FF" fill-opacity="0.5"/>
<ellipse cx="190.578" cy="46.0056" rx="2.36837" ry="2.41594" fill="#6BA6FF"/>
<ellipse cx="198.157" cy="46.0056" rx="2.36837" ry="2.41594" fill="#6BA6FF"/>
<ellipse cx="205.736" cy="46.0056" rx="2.36837" ry="2.41594" fill="#6BA6FF"/>
<path d="M262.946 88.6608L254.666 85.0208C254.146 84.8075 253.886 84.4408 253.886 83.9208C253.886 83.6675 253.953 83.4542 254.086 83.2808C254.22 83.1075 254.413 82.9675 254.666 82.8608L262.946 79.2008C263.133 79.1208 263.3 79.1075 263.446 79.1608C263.606 79.2008 263.733 79.2808 263.826 79.4008C263.92 79.5208 263.973 79.6608 263.986 79.8208C264 79.9808 263.966 80.1342 263.886 80.2808C263.82 80.4142 263.686 80.5208 263.486 80.6008L254.646 84.4408V83.4408L263.486 87.2808C263.686 87.3608 263.82 87.4742 263.886 87.6208C263.966 87.7542 264 87.9008 263.986 88.0608C263.973 88.2075 263.92 88.3475 263.826 88.4808C263.733 88.6008 263.606 88.6808 263.446 88.7208C263.3 88.7608 263.133 88.7408 262.946 88.6608ZM266.218 90.3208C266.152 90.5342 266.045 90.6875 265.898 90.7808C265.752 90.8742 265.592 90.9208 265.418 90.9208C265.245 90.9208 265.085 90.8742 264.938 90.7808C264.805 90.7008 264.712 90.5808 264.658 90.4208C264.592 90.2608 264.592 90.0675 264.658 89.8408L269.358 75.2808C269.425 75.0675 269.532 74.9142 269.678 74.8208C269.825 74.7142 269.978 74.6675 270.138 74.6808C270.312 74.6808 270.465 74.7275 270.598 74.8208C270.745 74.9008 270.845 75.0208 270.898 75.1808C270.965 75.3275 270.972 75.5142 270.918 75.7408L266.218 90.3208ZM272.656 88.6608C272.469 88.7408 272.296 88.7608 272.136 88.7208C271.989 88.6808 271.869 88.6008 271.776 88.4808C271.683 88.3475 271.629 88.2075 271.616 88.0608C271.603 87.9008 271.636 87.7542 271.716 87.6208C271.796 87.4742 271.923 87.3608 272.096 87.2808L280.956 83.4408V84.4408L272.096 80.6008C271.923 80.5208 271.796 80.4142 271.716 80.2808C271.636 80.1342 271.603 79.9808 271.616 79.8208C271.629 79.6608 271.683 79.5208 271.776 79.4008C271.869 79.2808 271.989 79.2008 272.136 79.1608C272.296 79.1075 272.469 79.1208 272.656 79.2008L280.936 82.8608C281.456 83.0742 281.716 83.4275 281.716 83.9208C281.716 84.1742 281.649 84.3942 281.516 84.5808C281.383 84.7675 281.189 84.9142 280.936 85.0208L272.656 88.6608Z" fill="#355EA8"/>
<rect x="188.21" y="130.561" width="56.8408" height="14.4956" fill="#002075"/>
<rect x="188.21" y="151.822" width="49.262" height="14.4956" fill="#002075"/>
<rect x="188.21" y="173.08" width="49.262" height="14.4956" fill="#002075"/>
<rect x="241.262" y="151.822" width="49.262" height="14.4956" fill="#002075"/>
<rect x="241.262" y="173.08" width="49.262" height="14.4956" fill="#002075"/>
<rect x="214.736" y="194.342" width="49.262" height="5.79825" fill="#002075"/>
<rect x="214.736" y="204.005" width="49.262" height="5.79825" fill="#002075"/>
</g>
<path d="M42.5594 270.316C41.794 270.316 41.0894 270.19 40.4454 269.938C39.8014 269.686 39.2414 269.336 38.7654 268.888C38.2894 268.43 37.9207 267.898 37.6594 267.292C37.398 266.676 37.2674 266.004 37.2674 265.276C37.2674 264.548 37.398 263.88 37.6594 263.274C37.9207 262.658 38.2894 262.126 38.7654 261.678C39.2414 261.22 39.8014 260.866 40.4454 260.614C41.0894 260.362 41.7894 260.236 42.5454 260.236C43.3107 260.236 44.0107 260.362 44.6454 260.614C45.2894 260.866 45.8494 261.22 46.3254 261.678C46.8014 262.126 47.17 262.658 47.4314 263.274C47.6927 263.88 47.8234 264.548 47.8234 265.276C47.8234 266.004 47.6927 266.676 47.4314 267.292C47.17 267.908 46.8014 268.44 46.3254 268.888C45.8494 269.336 45.2894 269.686 44.6454 269.938C44.0107 270.19 43.3154 270.316 42.5594 270.316ZM42.5454 268.72C43.04 268.72 43.4974 268.636 43.9174 268.468C44.3374 268.3 44.7014 268.062 45.0094 267.754C45.3174 267.436 45.5554 267.072 45.7234 266.662C45.9007 266.242 45.9894 265.78 45.9894 265.276C45.9894 264.772 45.9007 264.314 45.7234 263.904C45.5554 263.484 45.3174 263.12 45.0094 262.812C44.7014 262.494 44.3374 262.252 43.9174 262.084C43.4974 261.916 43.04 261.832 42.5454 261.832C42.0507 261.832 41.5934 261.916 41.1734 262.084C40.7627 262.252 40.3987 262.494 40.0814 262.812C39.7734 263.12 39.5307 263.484 39.3534 263.904C39.1854 264.314 39.1014 264.772 39.1014 265.276C39.1014 265.77 39.1854 266.228 39.3534 266.648C39.5307 267.068 39.7734 267.436 40.0814 267.754C40.3894 268.062 40.7534 268.3 41.1734 268.468C41.5934 268.636 42.0507 268.72 42.5454 268.72ZM53.7285 270.274C53.1219 270.274 52.5665 270.134 52.0625 269.854C51.5679 269.574 51.1712 269.154 50.8725 268.594C50.5832 268.024 50.4385 267.306 50.4385 266.438C50.4385 265.56 50.5785 264.842 50.8585 264.282C51.1479 263.722 51.5399 263.306 52.0345 263.036C52.5292 262.756 53.0939 262.616 53.7285 262.616C54.4659 262.616 55.1145 262.774 55.6745 263.092C56.2439 263.409 56.6919 263.852 57.0185 264.422C57.3545 264.991 57.5225 265.663 57.5225 266.438C57.5225 267.212 57.3545 267.889 57.0185 268.468C56.6919 269.037 56.2439 269.48 55.6745 269.798C55.1145 270.115 54.4659 270.274 53.7285 270.274ZM49.5845 272.892V262.7H51.2505V264.464L51.1945 266.452L51.3345 268.44V272.892H49.5845ZM53.5325 268.776C53.9525 268.776 54.3259 268.682 54.6525 268.496C54.9885 268.309 55.2545 268.038 55.4505 267.684C55.6465 267.329 55.7445 266.914 55.7445 266.438C55.7445 265.952 55.6465 265.537 55.4505 265.192C55.2545 264.837 54.9885 264.566 54.6525 264.38C54.3259 264.193 53.9525 264.1 53.5325 264.1C53.1125 264.1 52.7345 264.193 52.3985 264.38C52.0625 264.566 51.7965 264.837 51.6005 265.192C51.4045 265.537 51.3065 265.952 51.3065 266.438C51.3065 266.914 51.4045 267.329 51.6005 267.684C51.7965 268.038 52.0625 268.309 52.3985 268.496C52.7345 268.682 53.1125 268.776 53.5325 268.776ZM62.6962 270.274C61.8655 270.274 61.1375 270.11 60.5122 269.784C59.8962 269.448 59.4155 268.99 59.0702 268.412C58.7342 267.833 58.5662 267.175 58.5662 266.438C58.5662 265.691 58.7295 265.033 59.0562 264.464C59.3922 263.885 59.8495 263.432 60.4282 263.106C61.0162 262.779 61.6835 262.616 62.4302 262.616C63.1582 262.616 63.8068 262.774 64.3762 263.092C64.9455 263.409 65.3935 263.857 65.7202 264.436C66.0468 265.014 66.2102 265.696 66.2102 266.48C66.2102 266.554 66.2055 266.638 66.1962 266.732C66.1962 266.825 66.1915 266.914 66.1822 266.998H59.9522V265.836H65.2582L64.5722 266.2C64.5815 265.77 64.4928 265.392 64.3062 265.066C64.1195 264.739 63.8628 264.482 63.5362 264.296C63.2188 264.109 62.8502 264.016 62.4302 264.016C62.0008 264.016 61.6228 264.109 61.2962 264.296C60.9788 264.482 60.7268 264.744 60.5402 265.08C60.3628 265.406 60.2742 265.794 60.2742 266.242V266.522C60.2742 266.97 60.3768 267.366 60.5822 267.712C60.7875 268.057 61.0768 268.323 61.4502 268.51C61.8235 268.696 62.2528 268.79 62.7382 268.79C63.1582 268.79 63.5362 268.724 63.8722 268.594C64.2082 268.463 64.5068 268.258 64.7682 267.978L65.7062 269.056C65.3702 269.448 64.9455 269.751 64.4322 269.966C63.9282 270.171 63.3495 270.274 62.6962 270.274ZM72.1332 262.616C72.7305 262.616 73.2625 262.732 73.7292 262.966C74.2052 263.199 74.5785 263.558 74.8492 264.044C75.1198 264.52 75.2552 265.136 75.2552 265.892V270.176H73.5052V266.116C73.5052 265.453 73.3465 264.958 73.0292 264.632C72.7212 264.305 72.2872 264.142 71.7272 264.142C71.3165 264.142 70.9525 264.226 70.6352 264.394C70.3178 264.562 70.0705 264.814 69.8932 265.15C69.7252 265.476 69.6412 265.892 69.6412 266.396V270.176H67.8912V262.7H69.5572V264.716L69.2632 264.1C69.5245 263.624 69.9025 263.26 70.3972 263.008C70.9012 262.746 71.4798 262.616 72.1332 262.616ZM84.1583 270.274C83.337 270.274 82.7023 270.064 82.2543 269.644C81.8063 269.214 81.5823 268.584 81.5823 267.754V261.048H83.3323V267.712C83.3323 268.066 83.421 268.342 83.5983 268.538C83.785 268.734 84.0416 268.832 84.3683 268.832C84.7603 268.832 85.087 268.729 85.3483 268.524L85.8383 269.77C85.633 269.938 85.381 270.064 85.0823 270.148C84.7836 270.232 84.4756 270.274 84.1583 270.274ZM80.3503 264.156V262.756H85.3343V264.156H80.3503ZM91.5199 262.616C92.1172 262.616 92.6492 262.732 93.1159 262.966C93.5919 263.199 93.9652 263.558 94.2359 264.044C94.5066 264.52 94.6419 265.136 94.6419 265.892V270.176H92.8919V266.116C92.8919 265.453 92.7332 264.958 92.4159 264.632C92.1079 264.305 91.6739 264.142 91.1139 264.142C90.7032 264.142 90.3392 264.226 90.0219 264.394C89.7045 264.562 89.4572 264.814 89.2799 265.15C89.1119 265.476 89.0279 265.892 89.0279 266.396V270.176H87.2779V259.788H89.0279V264.716L88.6499 264.1C88.9112 263.624 89.2892 263.26 89.7839 263.008C90.2879 262.746 90.8665 262.616 91.5199 262.616ZM100.39 270.274C99.5589 270.274 98.8309 270.11 98.2055 269.784C97.5895 269.448 97.1089 268.99 96.7635 268.412C96.4275 267.833 96.2595 267.175 96.2595 266.438C96.2595 265.691 96.4229 265.033 96.7495 264.464C97.0855 263.885 97.5429 263.432 98.1215 263.106C98.7095 262.779 99.3769 262.616 100.124 262.616C100.852 262.616 101.5 262.774 102.07 263.092C102.639 263.409 103.087 263.857 103.414 264.436C103.74 265.014 103.904 265.696 103.904 266.48C103.904 266.554 103.899 266.638 103.89 266.732C103.89 266.825 103.885 266.914 103.876 266.998H97.6455V265.836H102.952L102.266 266.2C102.275 265.77 102.186 265.392 102 265.066C101.813 264.739 101.556 264.482 101.23 264.296C100.912 264.109 100.544 264.016 100.124 264.016C99.6942 264.016 99.3162 264.109 98.9895 264.296C98.6722 264.482 98.4202 264.744 98.2335 265.08C98.0562 265.406 97.9675 265.794 97.9675 266.242V266.522C97.9675 266.97 98.0702 267.366 98.2755 267.712C98.4809 268.057 98.7702 268.323 99.1435 268.51C99.5169 268.696 99.9462 268.79 100.432 268.79C100.852 268.79 101.23 268.724 101.566 268.594C101.902 268.463 102.2 268.258 102.462 267.978L103.4 269.056C103.064 269.448 102.639 269.751 102.126 269.966C101.622 270.171 101.043 270.274 100.39 270.274ZM109.622 270.176V260.376H113.654C114.522 260.376 115.264 260.516 115.88 260.796C116.505 261.076 116.986 261.477 117.322 262C117.658 262.522 117.826 263.143 117.826 263.862C117.826 264.58 117.658 265.201 117.322 265.724C116.986 266.246 116.505 266.648 115.88 266.928C115.264 267.208 114.522 267.348 113.654 267.348H110.63L111.442 266.494V270.176H109.622ZM111.442 266.69L110.63 265.808H113.57C114.372 265.808 114.974 265.64 115.376 265.304C115.786 264.958 115.992 264.478 115.992 263.862C115.992 263.236 115.786 262.756 115.376 262.42C114.974 262.084 114.372 261.916 113.57 261.916H110.63L111.442 261.02V266.69ZM119.612 270.176V259.788H121.362V270.176H119.612ZM126.823 270.274C126.188 270.274 125.628 270.157 125.143 269.924C124.657 269.681 124.279 269.317 124.009 268.832C123.738 268.337 123.603 267.716 123.603 266.97V262.7H125.353V266.732C125.353 267.404 125.502 267.908 125.801 268.244C126.109 268.57 126.543 268.734 127.103 268.734C127.513 268.734 127.868 268.65 128.167 268.482C128.475 268.314 128.713 268.062 128.881 267.726C129.058 267.39 129.147 266.974 129.147 266.48V262.7H130.897V270.176H129.231V268.16L129.525 268.776C129.273 269.261 128.904 269.634 128.419 269.896C127.933 270.148 127.401 270.274 126.823 270.274ZM136.576 272.99C135.885 272.99 135.209 272.896 134.546 272.71C133.893 272.532 133.356 272.271 132.936 271.926L133.72 270.61C134.047 270.88 134.457 271.095 134.952 271.254C135.456 271.422 135.965 271.506 136.478 271.506C137.299 271.506 137.901 271.314 138.284 270.932C138.667 270.558 138.858 269.994 138.858 269.238V267.908L138.998 266.214L138.942 264.52V262.7H140.608V269.042C140.608 270.395 140.263 271.389 139.572 272.024C138.881 272.668 137.883 272.99 136.576 272.99ZM136.352 269.84C135.643 269.84 134.999 269.69 134.42 269.392C133.851 269.084 133.398 268.659 133.062 268.118C132.735 267.576 132.572 266.942 132.572 266.214C132.572 265.495 132.735 264.865 133.062 264.324C133.398 263.782 133.851 263.362 134.42 263.064C134.999 262.765 135.643 262.616 136.352 262.616C136.987 262.616 137.556 262.742 138.06 262.994C138.564 263.246 138.965 263.638 139.264 264.17C139.572 264.702 139.726 265.383 139.726 266.214C139.726 267.044 139.572 267.73 139.264 268.272C138.965 268.804 138.564 269.2 138.06 269.462C137.556 269.714 136.987 269.84 136.352 269.84ZM136.618 268.356C137.057 268.356 137.449 268.267 137.794 268.09C138.139 267.903 138.405 267.651 138.592 267.334C138.788 267.007 138.886 266.634 138.886 266.214C138.886 265.794 138.788 265.425 138.592 265.108C138.405 264.781 138.139 264.534 137.794 264.366C137.449 264.188 137.057 264.1 136.618 264.1C136.179 264.1 135.783 264.188 135.428 264.366C135.083 264.534 134.812 264.781 134.616 265.108C134.429 265.425 134.336 265.794 134.336 266.214C134.336 266.634 134.429 267.007 134.616 267.334C134.812 267.651 135.083 267.903 135.428 268.09C135.783 268.267 136.179 268.356 136.618 268.356ZM142.909 270.176V262.7H144.659V270.176H142.909ZM143.791 261.468C143.464 261.468 143.193 261.365 142.979 261.16C142.773 260.954 142.671 260.707 142.671 260.418C142.671 260.119 142.773 259.872 142.979 259.676C143.193 259.47 143.464 259.368 143.791 259.368C144.117 259.368 144.383 259.466 144.589 259.662C144.803 259.848 144.911 260.086 144.911 260.376C144.911 260.684 144.808 260.945 144.603 261.16C144.397 261.365 144.127 261.468 143.791 261.468ZM151.198 262.616C151.795 262.616 152.327 262.732 152.794 262.966C153.27 263.199 153.643 263.558 153.914 264.044C154.184 264.52 154.32 265.136 154.32 265.892V270.176H152.57V266.116C152.57 265.453 152.411 264.958 152.094 264.632C151.786 264.305 151.352 264.142 150.792 264.142C150.381 264.142 150.017 264.226 149.7 264.394C149.382 264.562 149.135 264.814 148.958 265.15C148.79 265.476 148.706 265.892 148.706 266.396V270.176H146.956V262.7H148.622V264.716L148.328 264.1C148.589 263.624 148.967 263.26 149.462 263.008C149.966 262.746 150.544 262.616 151.198 262.616ZM160.409 270.176V262.7H162.159V270.176H160.409ZM161.291 261.468C160.964 261.468 160.693 261.365 160.479 261.16C160.273 260.954 160.171 260.707 160.171 260.418C160.171 260.119 160.273 259.872 160.479 259.676C160.693 259.47 160.964 259.368 161.291 259.368C161.617 259.368 161.883 259.466 162.089 259.662C162.303 259.848 162.411 260.086 162.411 260.376C162.411 260.684 162.308 260.945 162.103 261.16C161.897 261.365 161.627 261.468 161.291 261.468ZM168.698 262.616C169.295 262.616 169.827 262.732 170.294 262.966C170.77 263.199 171.143 263.558 171.414 264.044C171.684 264.52 171.82 265.136 171.82 265.892V270.176H170.07V266.116C170.07 265.453 169.911 264.958 169.594 264.632C169.286 264.305 168.852 264.142 168.292 264.142C167.881 264.142 167.517 264.226 167.2 264.394C166.882 264.562 166.635 264.814 166.458 265.15C166.29 265.476 166.206 265.892 166.206 266.396V270.176H164.456V262.7H166.122V264.716L165.828 264.1C166.089 263.624 166.467 263.26 166.962 263.008C167.466 262.746 168.044 262.616 168.698 262.616ZM179.743 264.884H184.629V266.424H179.743V264.884ZM179.897 270.176H178.077V260.376H185.231V261.902H179.897V270.176ZM186.823 270.176V262.7H188.573V270.176H186.823ZM187.705 261.468C187.378 261.468 187.107 261.365 186.893 261.16C186.687 260.954 186.585 260.707 186.585 260.418C186.585 260.119 186.687 259.872 186.893 259.676C187.107 259.47 187.378 259.368 187.705 259.368C188.031 259.368 188.297 259.466 188.503 259.662C188.717 259.848 188.825 260.086 188.825 260.376C188.825 260.684 188.722 260.945 188.517 261.16C188.311 261.365 188.041 261.468 187.705 261.468ZM194.258 272.99C193.567 272.99 192.89 272.896 192.228 272.71C191.574 272.532 191.038 272.271 190.618 271.926L191.402 270.61C191.728 270.88 192.139 271.095 192.634 271.254C193.138 271.422 193.646 271.506 194.16 271.506C194.981 271.506 195.583 271.314 195.966 270.932C196.348 270.558 196.54 269.994 196.54 269.238V267.908L196.68 266.214L196.624 264.52V262.7H198.29V269.042C198.29 270.395 197.944 271.389 197.254 272.024C196.563 272.668 195.564 272.99 194.258 272.99ZM194.034 269.84C193.324 269.84 192.68 269.69 192.102 269.392C191.532 269.084 191.08 268.659 190.744 268.118C190.417 267.576 190.254 266.942 190.254 266.214C190.254 265.495 190.417 264.865 190.744 264.324C191.08 263.782 191.532 263.362 192.102 263.064C192.68 262.765 193.324 262.616 194.034 262.616C194.668 262.616 195.238 262.742 195.742 262.994C196.246 263.246 196.647 263.638 196.946 264.17C197.254 264.702 197.408 265.383 197.408 266.214C197.408 267.044 197.254 267.73 196.946 268.272C196.647 268.804 196.246 269.2 195.742 269.462C195.238 269.714 194.668 269.84 194.034 269.84ZM194.3 268.356C194.738 268.356 195.13 268.267 195.476 268.09C195.821 267.903 196.087 267.651 196.274 267.334C196.47 267.007 196.568 266.634 196.568 266.214C196.568 265.794 196.47 265.425 196.274 265.108C196.087 264.781 195.821 264.534 195.476 264.366C195.13 264.188 194.738 264.1 194.3 264.1C193.861 264.1 193.464 264.188 193.11 264.366C192.764 264.534 192.494 264.781 192.298 265.108C192.111 265.425 192.018 265.794 192.018 266.214C192.018 266.634 192.111 267.007 192.298 267.334C192.494 267.651 192.764 267.903 193.11 268.09C193.464 268.267 193.861 268.356 194.3 268.356ZM210.026 262.616C210.624 262.616 211.151 262.732 211.608 262.966C212.075 263.199 212.439 263.558 212.7 264.044C212.962 264.52 213.092 265.136 213.092 265.892V270.176H211.342V266.116C211.342 265.453 211.198 264.958 210.908 264.632C210.619 264.305 210.204 264.142 209.662 264.142C209.28 264.142 208.939 264.226 208.64 264.394C208.351 264.562 208.122 264.809 207.954 265.136C207.796 265.462 207.716 265.878 207.716 266.382V270.176H205.966V266.116C205.966 265.453 205.822 264.958 205.532 264.632C205.243 264.305 204.828 264.142 204.286 264.142C203.904 264.142 203.563 264.226 203.264 264.394C202.975 264.562 202.746 264.809 202.578 265.136C202.42 265.462 202.34 265.878 202.34 266.382V270.176H200.59V262.7H202.256V264.688L201.962 264.1C202.214 263.614 202.578 263.246 203.054 262.994C203.54 262.742 204.09 262.616 204.706 262.616C205.406 262.616 206.013 262.788 206.526 263.134C207.049 263.479 207.394 264.002 207.562 264.702L206.876 264.464C207.119 263.904 207.52 263.456 208.08 263.12C208.64 262.784 209.289 262.616 210.026 262.616ZM219.935 270.176V268.664L219.837 268.342V265.696C219.837 265.182 219.683 264.786 219.375 264.506C219.067 264.216 218.6 264.072 217.975 264.072C217.555 264.072 217.139 264.137 216.729 264.268C216.327 264.398 215.987 264.58 215.707 264.814L215.021 263.54C215.422 263.232 215.898 263.003 216.449 262.854C217.009 262.695 217.587 262.616 218.185 262.616C219.267 262.616 220.103 262.877 220.691 263.4C221.288 263.913 221.587 264.711 221.587 265.794V270.176H219.935ZM217.583 270.274C217.023 270.274 216.533 270.18 216.113 269.994C215.693 269.798 215.366 269.532 215.133 269.196C214.909 268.85 214.797 268.463 214.797 268.034C214.797 267.614 214.895 267.236 215.091 266.9C215.296 266.564 215.627 266.298 216.085 266.102C216.542 265.906 217.149 265.808 217.905 265.808H220.075V266.97H218.031C217.433 266.97 217.032 267.068 216.827 267.264C216.621 267.45 216.519 267.684 216.519 267.964C216.519 268.281 216.645 268.533 216.897 268.72C217.149 268.906 217.499 269 217.947 269C218.376 269 218.759 268.902 219.095 268.706C219.44 268.51 219.687 268.22 219.837 267.838L220.131 268.888C219.963 269.326 219.659 269.667 219.221 269.91C218.791 270.152 218.245 270.274 217.583 270.274ZM230.516 270.274C229.694 270.274 229.06 270.064 228.612 269.644C228.164 269.214 227.94 268.584 227.94 267.754V261.048H229.69V267.712C229.69 268.066 229.778 268.342 229.956 268.538C230.142 268.734 230.399 268.832 230.726 268.832C231.118 268.832 231.444 268.729 231.706 268.524L232.196 269.77C231.99 269.938 231.738 270.064 231.44 270.148C231.141 270.232 230.833 270.274 230.516 270.274ZM226.708 264.156V262.756H231.692V264.156H226.708ZM236.749 270.274C235.984 270.274 235.303 270.11 234.705 269.784C234.108 269.448 233.637 268.99 233.291 268.412C232.946 267.833 232.773 267.175 232.773 266.438C232.773 265.691 232.946 265.033 233.291 264.464C233.637 263.885 234.108 263.432 234.705 263.106C235.303 262.779 235.984 262.616 236.749 262.616C237.524 262.616 238.21 262.779 238.807 263.106C239.414 263.432 239.885 263.88 240.221 264.45C240.567 265.019 240.739 265.682 240.739 266.438C240.739 267.175 240.567 267.833 240.221 268.412C239.885 268.99 239.414 269.448 238.807 269.784C238.21 270.11 237.524 270.274 236.749 270.274ZM236.749 268.776C237.179 268.776 237.561 268.682 237.897 268.496C238.233 268.309 238.495 268.038 238.681 267.684C238.877 267.329 238.975 266.914 238.975 266.438C238.975 265.952 238.877 265.537 238.681 265.192C238.495 264.837 238.233 264.566 237.897 264.38C237.561 264.193 237.183 264.1 236.763 264.1C236.334 264.1 235.951 264.193 235.615 264.38C235.289 264.566 235.027 264.837 234.831 265.192C234.635 265.537 234.537 265.952 234.537 266.438C234.537 266.914 234.635 267.329 234.831 267.684C235.027 268.038 235.289 268.309 235.615 268.496C235.951 268.682 236.329 268.776 236.749 268.776ZM248.592 270.274C247.966 270.274 247.364 270.194 246.786 270.036C246.216 269.868 245.764 269.667 245.428 269.434L246.1 268.104C246.436 268.318 246.837 268.496 247.304 268.636C247.77 268.776 248.237 268.846 248.704 268.846C249.254 268.846 249.651 268.771 249.894 268.622C250.146 268.472 250.272 268.272 250.272 268.02C250.272 267.814 250.188 267.66 250.02 267.558C249.852 267.446 249.632 267.362 249.362 267.306C249.091 267.25 248.788 267.198 248.452 267.152C248.125 267.105 247.794 267.044 247.458 266.97C247.131 266.886 246.832 266.769 246.562 266.62C246.291 266.461 246.072 266.251 245.904 265.99C245.736 265.728 245.652 265.383 245.652 264.954C245.652 264.478 245.787 264.067 246.058 263.722C246.328 263.367 246.706 263.096 247.192 262.91C247.686 262.714 248.27 262.616 248.942 262.616C249.446 262.616 249.954 262.672 250.468 262.784C250.981 262.896 251.406 263.054 251.742 263.26L251.07 264.59C250.715 264.375 250.356 264.23 249.992 264.156C249.637 264.072 249.282 264.03 248.928 264.03C248.396 264.03 247.999 264.109 247.738 264.268C247.486 264.426 247.36 264.627 247.36 264.87C247.36 265.094 247.444 265.262 247.612 265.374C247.78 265.486 247.999 265.574 248.27 265.64C248.54 265.705 248.839 265.761 249.166 265.808C249.502 265.845 249.833 265.906 250.16 265.99C250.486 266.074 250.785 266.19 251.056 266.34C251.336 266.48 251.56 266.68 251.728 266.942C251.896 267.203 251.98 267.544 251.98 267.964C251.98 268.43 251.84 268.836 251.56 269.182C251.289 269.527 250.902 269.798 250.398 269.994C249.894 270.18 249.292 270.274 248.592 270.274ZM256.301 270.274C255.48 270.274 254.845 270.064 254.397 269.644C253.949 269.214 253.725 268.584 253.725 267.754V261.048H255.475V267.712C255.475 268.066 255.564 268.342 255.741 268.538C255.928 268.734 256.184 268.832 256.511 268.832C256.903 268.832 257.23 268.729 257.491 268.524L257.981 269.77C257.776 269.938 257.524 270.064 257.225 270.148C256.926 270.232 256.618 270.274 256.301 270.274ZM252.493 264.156V262.756H257.477V264.156H252.493ZM264.026 270.176V268.664L263.928 268.342V265.696C263.928 265.182 263.774 264.786 263.466 264.506C263.158 264.216 262.692 264.072 262.066 264.072C261.646 264.072 261.231 264.137 260.82 264.268C260.419 264.398 260.078 264.58 259.798 264.814L259.112 263.54C259.514 263.232 259.99 263.003 260.54 262.854C261.1 262.695 261.679 262.616 262.276 262.616C263.359 262.616 264.194 262.877 264.782 263.4C265.38 263.913 265.678 264.711 265.678 265.794V270.176H264.026ZM261.674 270.274C261.114 270.274 260.624 270.18 260.204 269.994C259.784 269.798 259.458 269.532 259.224 269.196C259 268.85 258.888 268.463 258.888 268.034C258.888 267.614 258.986 267.236 259.182 266.9C259.388 266.564 259.719 266.298 260.176 266.102C260.634 265.906 261.24 265.808 261.996 265.808H264.166V266.97H262.122C261.525 266.97 261.124 267.068 260.918 267.264C260.713 267.45 260.61 267.684 260.61 267.964C260.61 268.281 260.736 268.533 260.988 268.72C261.24 268.906 261.59 269 262.038 269C262.468 269 262.85 268.902 263.186 268.706C263.532 268.51 263.779 268.22 263.928 267.838L264.222 268.888C264.054 269.326 263.751 269.667 263.312 269.91C262.883 270.152 262.337 270.274 261.674 270.274ZM267.924 270.176V262.7H269.59V264.758L269.394 264.156C269.618 263.652 269.968 263.269 270.444 263.008C270.93 262.746 271.532 262.616 272.25 262.616V264.282C272.176 264.263 272.106 264.254 272.04 264.254C271.975 264.244 271.91 264.24 271.844 264.24C271.182 264.24 270.654 264.436 270.262 264.828C269.87 265.21 269.674 265.784 269.674 266.55V270.176H267.924ZM276.822 270.274C276.001 270.274 275.366 270.064 274.918 269.644C274.47 269.214 274.246 268.584 274.246 267.754V261.048H275.996V267.712C275.996 268.066 276.085 268.342 276.262 268.538C276.449 268.734 276.706 268.832 277.032 268.832C277.424 268.832 277.751 268.729 278.012 268.524L278.502 269.77C278.297 269.938 278.045 270.064 277.746 270.148C277.448 270.232 277.14 270.274 276.822 270.274ZM273.014 264.156V262.756H277.998V264.156H273.014ZM280.639 270.274C280.321 270.274 280.051 270.166 279.827 269.952C279.603 269.728 279.491 269.448 279.491 269.112C279.491 268.757 279.603 268.477 279.827 268.272C280.051 268.057 280.321 267.95 280.639 267.95C280.956 267.95 281.227 268.057 281.451 268.272C281.675 268.477 281.787 268.757 281.787 269.112C281.787 269.448 281.675 269.728 281.451 269.952C281.227 270.166 280.956 270.274 280.639 270.274Z" fill="white"/>
<path d="M76.0795 296.277C75.3329 296.277 74.6422 296.156 74.0075 295.913C73.3822 295.661 72.8362 295.311 72.3695 294.863C71.9122 294.415 71.5529 293.888 71.2915 293.281C71.0395 292.675 70.9135 292.012 70.9135 291.293C70.9135 290.575 71.0395 289.912 71.2915 289.305C71.5529 288.699 71.9169 288.171 72.3835 287.723C72.8502 287.275 73.3962 286.93 74.0215 286.687C74.6562 286.435 75.3469 286.309 76.0935 286.309C76.8402 286.309 77.5215 286.426 78.1375 286.659C78.7629 286.893 79.2949 287.247 79.7335 287.723L79.0895 288.381C78.6789 287.971 78.2262 287.677 77.7315 287.499C77.2369 287.322 76.7049 287.233 76.1355 287.233C75.5289 287.233 74.9689 287.336 74.4555 287.541C73.9515 287.737 73.5082 288.022 73.1255 288.395C72.7522 288.759 72.4582 289.189 72.2435 289.683C72.0382 290.169 71.9355 290.705 71.9355 291.293C71.9355 291.872 72.0382 292.409 72.2435 292.903C72.4582 293.398 72.7522 293.832 73.1255 294.205C73.5082 294.569 73.9515 294.854 74.4555 295.059C74.9689 295.255 75.5242 295.353 76.1215 295.353C76.6815 295.353 77.2089 295.269 77.7035 295.101C78.2075 294.933 78.6695 294.649 79.0895 294.247L79.6775 295.031C79.2109 295.442 78.6649 295.755 78.0395 295.969C77.4142 296.175 76.7609 296.277 76.0795 296.277ZM78.6835 294.905V291.293H79.6775V295.031L78.6835 294.905ZM85.5217 296.263C84.7563 296.263 84.0843 296.105 83.5057 295.787C82.927 295.461 82.4743 295.017 82.1477 294.457C81.821 293.888 81.6577 293.239 81.6577 292.511C81.6577 291.783 81.8117 291.139 82.1197 290.579C82.437 290.019 82.8663 289.581 83.4077 289.263C83.9583 288.937 84.5743 288.773 85.2557 288.773C85.9463 288.773 86.5577 288.932 87.0897 289.249C87.631 289.557 88.0557 289.996 88.3637 290.565C88.6717 291.125 88.8257 291.774 88.8257 292.511C88.8257 292.558 88.821 292.609 88.8117 292.665C88.8117 292.712 88.8117 292.763 88.8117 292.819H82.4137V292.077H88.2797L87.8877 292.371C87.8877 291.839 87.771 291.368 87.5377 290.957C87.3137 290.537 87.0057 290.211 86.6137 289.977C86.2217 289.744 85.769 289.627 85.2557 289.627C84.7517 289.627 84.299 289.744 83.8977 289.977C83.4963 290.211 83.1837 290.537 82.9597 290.957C82.7357 291.377 82.6237 291.858 82.6237 292.399V292.553C82.6237 293.113 82.745 293.608 82.9877 294.037C83.2397 294.457 83.585 294.789 84.0237 295.031C84.4717 295.265 84.9803 295.381 85.5497 295.381C85.9977 295.381 86.413 295.302 86.7957 295.143C87.1877 294.985 87.5237 294.742 87.8037 294.415L88.3637 295.059C88.037 295.451 87.6263 295.75 87.1317 295.955C86.6463 296.161 86.1097 296.263 85.5217 296.263ZM93.1729 296.263C92.4822 296.263 91.9502 296.077 91.5769 295.703C91.2036 295.33 91.0169 294.803 91.0169 294.121V287.219H92.0109V294.065C92.0109 294.495 92.1182 294.826 92.3329 295.059C92.5569 295.293 92.8742 295.409 93.2849 295.409C93.7236 295.409 94.0876 295.283 94.3769 295.031L94.7269 295.745C94.5309 295.923 94.2929 296.053 94.0129 296.137C93.7422 296.221 93.4622 296.263 93.1729 296.263ZM89.7009 289.669V288.843H94.2509V289.669H89.7009ZM98.669 296.263C97.9783 296.263 97.4463 296.077 97.073 295.703C96.6997 295.33 96.513 294.803 96.513 294.121V287.219H97.507V294.065C97.507 294.495 97.6143 294.826 97.829 295.059C98.053 295.293 98.3703 295.409 98.781 295.409C99.2197 295.409 99.5837 295.283 99.873 295.031L100.223 295.745C100.027 295.923 99.789 296.053 99.509 296.137C99.2383 296.221 98.9583 296.263 98.669 296.263ZM95.197 289.669V288.843H99.747V289.669H95.197ZM102.032 296.193V288.843H103.026V296.193H102.032ZM102.536 287.219C102.331 287.219 102.158 287.149 102.018 287.009C101.878 286.869 101.808 286.701 101.808 286.505C101.808 286.309 101.878 286.146 102.018 286.015C102.158 285.875 102.331 285.805 102.536 285.805C102.742 285.805 102.914 285.871 103.054 286.001C103.194 286.132 103.264 286.295 103.264 286.491C103.264 286.697 103.194 286.869 103.054 287.009C102.924 287.149 102.751 287.219 102.536 287.219ZM109.544 288.773C110.142 288.773 110.664 288.89 111.112 289.123C111.57 289.347 111.924 289.693 112.176 290.159C112.438 290.626 112.568 291.214 112.568 291.923V296.193H111.574V292.021C111.574 291.247 111.378 290.663 110.986 290.271C110.604 289.87 110.062 289.669 109.362 289.669C108.84 289.669 108.382 289.777 107.99 289.991C107.608 290.197 107.309 290.5 107.094 290.901C106.889 291.293 106.786 291.769 106.786 292.329V296.193H105.792V288.843H106.744V290.859L106.59 290.481C106.824 289.949 107.197 289.534 107.71 289.235C108.224 288.927 108.835 288.773 109.544 288.773ZM118.389 298.979C117.717 298.979 117.073 298.881 116.457 298.685C115.841 298.489 115.342 298.209 114.959 297.845L115.463 297.089C115.809 297.397 116.233 297.64 116.737 297.817C117.251 298.004 117.792 298.097 118.361 298.097C119.295 298.097 119.981 297.878 120.419 297.439C120.858 297.01 121.077 296.338 121.077 295.423V293.589L121.217 292.329L121.119 291.069V288.843H122.071V295.297C122.071 296.567 121.759 297.495 121.133 298.083C120.517 298.681 119.603 298.979 118.389 298.979ZM118.207 295.913C117.507 295.913 116.877 295.764 116.317 295.465C115.757 295.157 115.314 294.733 114.987 294.191C114.67 293.65 114.511 293.029 114.511 292.329C114.511 291.629 114.67 291.013 114.987 290.481C115.314 289.94 115.757 289.52 116.317 289.221C116.877 288.923 117.507 288.773 118.207 288.773C118.861 288.773 119.449 288.909 119.971 289.179C120.494 289.45 120.909 289.851 121.217 290.383C121.525 290.915 121.679 291.564 121.679 292.329C121.679 293.095 121.525 293.743 121.217 294.275C120.909 294.807 120.494 295.213 119.971 295.493C119.449 295.773 118.861 295.913 118.207 295.913ZM118.305 295.031C118.847 295.031 119.327 294.919 119.747 294.695C120.167 294.462 120.499 294.145 120.741 293.743C120.984 293.333 121.105 292.861 121.105 292.329C121.105 291.797 120.984 291.331 120.741 290.929C120.499 290.528 120.167 290.215 119.747 289.991C119.327 289.758 118.847 289.641 118.305 289.641C117.773 289.641 117.293 289.758 116.863 289.991C116.443 290.215 116.112 290.528 115.869 290.929C115.636 291.331 115.519 291.797 115.519 292.329C115.519 292.861 115.636 293.333 115.869 293.743C116.112 294.145 116.443 294.462 116.863 294.695C117.293 294.919 117.773 295.031 118.305 295.031ZM131.413 296.277C130.685 296.277 129.985 296.161 129.313 295.927C128.651 295.685 128.137 295.377 127.773 295.003L128.179 294.205C128.525 294.541 128.987 294.826 129.565 295.059C130.153 295.283 130.769 295.395 131.413 295.395C132.029 295.395 132.529 295.321 132.911 295.171C133.303 295.013 133.588 294.803 133.765 294.541C133.952 294.28 134.045 293.991 134.045 293.673C134.045 293.291 133.933 292.983 133.709 292.749C133.495 292.516 133.21 292.334 132.855 292.203C132.501 292.063 132.109 291.942 131.679 291.839C131.25 291.737 130.821 291.629 130.391 291.517C129.962 291.396 129.565 291.237 129.201 291.041C128.847 290.845 128.557 290.589 128.333 290.271C128.119 289.945 128.011 289.52 128.011 288.997C128.011 288.512 128.137 288.069 128.389 287.667C128.651 287.257 129.047 286.93 129.579 286.687C130.111 286.435 130.793 286.309 131.623 286.309C132.174 286.309 132.72 286.389 133.261 286.547C133.803 286.697 134.269 286.907 134.661 287.177L134.311 288.003C133.891 287.723 133.443 287.518 132.967 287.387C132.501 287.257 132.048 287.191 131.609 287.191C131.021 287.191 130.536 287.271 130.153 287.429C129.771 287.588 129.486 287.803 129.299 288.073C129.122 288.335 129.033 288.633 129.033 288.969C129.033 289.352 129.141 289.66 129.355 289.893C129.579 290.127 129.869 290.309 130.223 290.439C130.587 290.57 130.984 290.687 131.413 290.789C131.843 290.892 132.267 291.004 132.687 291.125C133.117 291.247 133.509 291.405 133.863 291.601C134.227 291.788 134.517 292.04 134.731 292.357C134.955 292.675 135.067 293.09 135.067 293.603C135.067 294.079 134.937 294.523 134.675 294.933C134.414 295.335 134.013 295.661 133.471 295.913C132.939 296.156 132.253 296.277 131.413 296.277ZM139.439 296.263C138.748 296.263 138.216 296.077 137.843 295.703C137.469 295.33 137.283 294.803 137.283 294.121V287.219H138.277V294.065C138.277 294.495 138.384 294.826 138.599 295.059C138.823 295.293 139.14 295.409 139.551 295.409C139.989 295.409 140.353 295.283 140.643 295.031L140.993 295.745C140.797 295.923 140.559 296.053 140.279 296.137C140.008 296.221 139.728 296.263 139.439 296.263ZM135.967 289.669V288.843H140.517V289.669H135.967ZM145.84 296.263C145.215 296.263 144.669 296.147 144.202 295.913C143.735 295.68 143.371 295.33 143.11 294.863C142.858 294.397 142.732 293.813 142.732 293.113V288.843H143.726V293.001C143.726 293.785 143.917 294.378 144.3 294.779C144.692 295.171 145.238 295.367 145.938 295.367C146.451 295.367 146.895 295.265 147.268 295.059C147.651 294.845 147.94 294.537 148.136 294.135C148.341 293.734 148.444 293.253 148.444 292.693V288.843H149.438V296.193H148.486V294.177L148.64 294.541C148.407 295.083 148.043 295.507 147.548 295.815C147.063 296.114 146.493 296.263 145.84 296.263ZM155.26 296.263C154.532 296.263 153.879 296.105 153.3 295.787C152.731 295.461 152.283 295.017 151.956 294.457C151.63 293.888 151.466 293.239 151.466 292.511C151.466 291.774 151.63 291.125 151.956 290.565C152.283 290.005 152.731 289.567 153.3 289.249C153.879 288.932 154.532 288.773 155.26 288.773C155.886 288.773 156.45 288.895 156.954 289.137C157.458 289.38 157.855 289.744 158.144 290.229L157.402 290.733C157.15 290.36 156.838 290.085 156.464 289.907C156.091 289.73 155.685 289.641 155.246 289.641C154.724 289.641 154.252 289.763 153.832 290.005C153.412 290.239 153.081 290.57 152.838 290.999C152.596 291.429 152.474 291.933 152.474 292.511C152.474 293.09 152.596 293.594 152.838 294.023C153.081 294.453 153.412 294.789 153.832 295.031C154.252 295.265 154.724 295.381 155.246 295.381C155.685 295.381 156.091 295.293 156.464 295.115C156.838 294.938 157.15 294.667 157.402 294.303L158.144 294.807C157.855 295.283 157.458 295.647 156.954 295.899C156.45 296.142 155.886 296.263 155.26 296.263ZM160.772 294.289L160.8 293.015L165.378 288.843H166.596L163.362 291.937L162.802 292.413L160.772 294.289ZM159.988 296.193V285.805H160.982V296.193H159.988ZM165.686 296.193L162.62 292.371L163.264 291.601L166.904 296.193H165.686ZM170.368 293.253C170.368 292.861 170.429 292.525 170.55 292.245C170.681 291.965 170.839 291.718 171.026 291.503C171.222 291.289 171.427 291.088 171.642 290.901C171.866 290.715 172.076 290.528 172.272 290.341C172.468 290.145 172.627 289.935 172.748 289.711C172.869 289.478 172.93 289.207 172.93 288.899C172.93 288.395 172.734 287.985 172.342 287.667C171.95 287.35 171.395 287.191 170.676 287.191C170.079 287.191 169.561 287.289 169.122 287.485C168.683 287.672 168.31 287.952 168.002 288.325L167.26 287.765C167.633 287.299 168.114 286.939 168.702 286.687C169.29 286.435 169.971 286.309 170.746 286.309C171.399 286.309 171.964 286.407 172.44 286.603C172.925 286.799 173.299 287.079 173.56 287.443C173.831 287.807 173.966 288.241 173.966 288.745C173.966 289.147 173.901 289.492 173.77 289.781C173.649 290.061 173.49 290.313 173.294 290.537C173.107 290.752 172.902 290.957 172.678 291.153C172.463 291.34 172.258 291.531 172.062 291.727C171.866 291.923 171.707 292.143 171.586 292.385C171.465 292.628 171.404 292.917 171.404 293.253H170.368ZM170.886 296.263C170.69 296.263 170.517 296.193 170.368 296.053C170.228 295.904 170.158 295.731 170.158 295.535C170.158 295.33 170.228 295.162 170.368 295.031C170.517 294.891 170.69 294.821 170.886 294.821C171.101 294.821 171.278 294.891 171.418 295.031C171.558 295.162 171.628 295.33 171.628 295.535C171.628 295.731 171.558 295.904 171.418 296.053C171.278 296.193 171.101 296.263 170.886 296.263ZM184.538 296.277C183.8 296.277 183.119 296.156 182.494 295.913C181.868 295.661 181.327 295.311 180.87 294.863C180.412 294.415 180.053 293.888 179.792 293.281C179.54 292.675 179.414 292.012 179.414 291.293C179.414 290.575 179.54 289.912 179.792 289.305C180.053 288.699 180.412 288.171 180.87 287.723C181.336 287.275 181.882 286.93 182.508 286.687C183.133 286.435 183.814 286.309 184.552 286.309C185.261 286.309 185.928 286.431 186.554 286.673C187.179 286.907 187.706 287.261 188.136 287.737L187.478 288.395C187.076 287.985 186.633 287.691 186.148 287.513C185.662 287.327 185.14 287.233 184.58 287.233C183.992 287.233 183.446 287.336 182.942 287.541C182.438 287.737 181.999 288.022 181.626 288.395C181.252 288.759 180.958 289.189 180.744 289.683C180.538 290.169 180.436 290.705 180.436 291.293C180.436 291.881 180.538 292.423 180.744 292.917C180.958 293.403 181.252 293.832 181.626 294.205C181.999 294.569 182.438 294.854 182.942 295.059C183.446 295.255 183.992 295.353 184.58 295.353C185.14 295.353 185.662 295.26 186.148 295.073C186.633 294.887 187.076 294.588 187.478 294.177L188.136 294.835C187.706 295.311 187.179 295.671 186.554 295.913C185.928 296.156 185.256 296.277 184.538 296.277ZM190.134 296.193V285.805H191.128V296.193H190.134ZM193.894 296.193V288.843H194.888V296.193H193.894ZM194.398 287.219C194.192 287.219 194.02 287.149 193.88 287.009C193.74 286.869 193.67 286.701 193.67 286.505C193.67 286.309 193.74 286.146 193.88 286.015C194.02 285.875 194.192 285.805 194.398 285.805C194.603 285.805 194.776 285.871 194.916 286.001C195.056 286.132 195.126 286.295 195.126 286.491C195.126 286.697 195.056 286.869 194.916 287.009C194.785 287.149 194.612 287.219 194.398 287.219ZM200.706 296.263C199.978 296.263 199.324 296.105 198.746 295.787C198.176 295.461 197.728 295.017 197.402 294.457C197.075 293.888 196.912 293.239 196.912 292.511C196.912 291.774 197.075 291.125 197.402 290.565C197.728 290.005 198.176 289.567 198.746 289.249C199.324 288.932 199.978 288.773 200.706 288.773C201.331 288.773 201.896 288.895 202.4 289.137C202.904 289.38 203.3 289.744 203.59 290.229L202.848 290.733C202.596 290.36 202.283 290.085 201.91 289.907C201.536 289.73 201.13 289.641 200.692 289.641C200.169 289.641 199.698 289.763 199.278 290.005C198.858 290.239 198.526 290.57 198.284 290.999C198.041 291.429 197.92 291.933 197.92 292.511C197.92 293.09 198.041 293.594 198.284 294.023C198.526 294.453 198.858 294.789 199.278 295.031C199.698 295.265 200.169 295.381 200.692 295.381C201.13 295.381 201.536 295.293 201.91 295.115C202.283 294.938 202.596 294.667 202.848 294.303L203.59 294.807C203.3 295.283 202.904 295.647 202.4 295.899C201.896 296.142 201.331 296.263 200.706 296.263ZM206.217 294.289L206.245 293.015L210.823 288.843H212.041L208.807 291.937L208.247 292.413L206.217 294.289ZM205.433 296.193V285.805H206.427V296.193H205.433ZM211.131 296.193L208.065 292.371L208.709 291.601L212.349 296.193H211.131ZM224.883 286.393H225.905V296.193H224.883V286.393ZM218.751 296.193H217.715V286.393H218.751V296.193ZM224.981 291.671H218.639V290.761H224.981V291.671ZM232.016 296.263C231.25 296.263 230.578 296.105 230 295.787C229.421 295.461 228.968 295.017 228.642 294.457C228.315 293.888 228.152 293.239 228.152 292.511C228.152 291.783 228.306 291.139 228.614 290.579C228.931 290.019 229.36 289.581 229.902 289.263C230.452 288.937 231.068 288.773 231.75 288.773C232.44 288.773 233.052 288.932 233.584 289.249C234.125 289.557 234.55 289.996 234.858 290.565C235.166 291.125 235.32 291.774 235.32 292.511C235.32 292.558 235.315 292.609 235.306 292.665C235.306 292.712 235.306 292.763 235.306 292.819H228.908V292.077H234.774L234.382 292.371C234.382 291.839 234.265 291.368 234.032 290.957C233.808 290.537 233.5 290.211 233.108 289.977C232.716 289.744 232.263 289.627 231.75 289.627C231.246 289.627 230.793 289.744 230.392 289.977C229.99 290.211 229.678 290.537 229.454 290.957C229.23 291.377 229.118 291.858 229.118 292.399V292.553C229.118 293.113 229.239 293.608 229.482 294.037C229.734 294.457 230.079 294.789 230.518 295.031C230.966 295.265 231.474 295.381 232.044 295.381C232.492 295.381 232.907 295.302 233.29 295.143C233.682 294.985 234.018 294.742 234.298 294.415L234.858 295.059C234.531 295.451 234.12 295.75 233.626 295.955C233.14 296.161 232.604 296.263 232.016 296.263ZM237.343 296.193V288.843H238.295V290.845L238.197 290.495C238.402 289.935 238.748 289.511 239.233 289.221C239.718 288.923 240.32 288.773 241.039 288.773V289.739C241.002 289.739 240.964 289.739 240.927 289.739C240.89 289.73 240.852 289.725 240.815 289.725C240.04 289.725 239.434 289.963 238.995 290.439C238.556 290.906 238.337 291.573 238.337 292.441V296.193H237.343ZM245.906 296.263C245.141 296.263 244.469 296.105 243.89 295.787C243.312 295.461 242.859 295.017 242.532 294.457C242.206 293.888 242.042 293.239 242.042 292.511C242.042 291.783 242.196 291.139 242.504 290.579C242.822 290.019 243.251 289.581 243.792 289.263C244.343 288.937 244.959 288.773 245.64 288.773C246.331 288.773 246.942 288.932 247.474 289.249C248.016 289.557 248.44 289.996 248.748 290.565C249.056 291.125 249.21 291.774 249.21 292.511C249.21 292.558 249.206 292.609 249.196 292.665C249.196 292.712 249.196 292.763 249.196 292.819H242.798V292.077H248.664L248.272 292.371C248.272 291.839 248.156 291.368 247.922 290.957C247.698 290.537 247.39 290.211 246.998 289.977C246.606 289.744 246.154 289.627 245.64 289.627C245.136 289.627 244.684 289.744 244.282 289.977C243.881 290.211 243.568 290.537 243.344 290.957C243.12 291.377 243.008 291.858 243.008 292.399V292.553C243.008 293.113 243.13 293.608 243.372 294.037C243.624 294.457 243.97 294.789 244.408 295.031C244.856 295.265 245.365 295.381 245.934 295.381C246.382 295.381 246.798 295.302 247.18 295.143C247.572 294.985 247.908 294.742 248.188 294.415L248.748 295.059C248.422 295.451 248.011 295.75 247.516 295.955C247.031 296.161 246.494 296.263 245.906 296.263ZM251.332 296.263C251.126 296.263 250.949 296.189 250.8 296.039C250.66 295.89 250.59 295.708 250.59 295.493C250.59 295.269 250.66 295.087 250.8 294.947C250.949 294.807 251.126 294.737 251.332 294.737C251.537 294.737 251.71 294.807 251.85 294.947C251.999 295.087 252.074 295.269 252.074 295.493C252.074 295.708 251.999 295.89 251.85 296.039C251.71 296.189 251.537 296.263 251.332 296.263Z" fill="white"/>
<rect opacity="0.5" x="0.5" y="0.5" width="314" height="320" rx="19.5" stroke="url(#paint0_linear_9_40)"/>
<defs>
<filter id="filter0_d_9_40" x="7.74285" y="9.86199" width="286.314" height="189.761" filterUnits="userSpaceOnUse" color-interpolation-filters="sRGB">
<feFlood flood-opacity="0" result="BackgroundImageFix"/>
<feColorMatrix in="SourceAlpha" type="matrix" values="0 0 0 0 0 0 0 0 0 0 0 0 0 0 0 0 0 0 127 0" result="hardAlpha"/>
<feOffset dy="4"/>
<feGaussianBlur stdDeviation="4.4"/>
<feComposite in2="hardAlpha" operator="out"/>
<feColorMatrix type="matrix" values="0 0 0 0 0 0 0 0 0 0.0784314 0 0 0 0 0.207843 0 0 0 0.77 0"/>
<feBlend mode="normal" in2="BackgroundImageFix" result="effect1_dropShadow_9_40"/>
<feBlend mode="normal" in="SourceGraphic" in2="effect1_dropShadow_9_40" result="shape"/>
</filter>
<filter id="filter1_d_9_40" x="50.3428" y="34.462" width="217.4" height="103.4" filterUnits="userSpaceOnUse" color-interpolation-filters="sRGB">
<feFlood flood-opacity="0" result="BackgroundImageFix"/>
<feColorMatrix in="SourceAlpha" type="matrix" values="0 0 0 0 0 0 0 0 0 0 0 0 0 0 0 0 0 0 127 0" result="hardAlpha"/>
<feOffset dy="-3"/>
<feGaussianBlur stdDeviation="3.1"/>
<feComposite in2="hardAlpha" operator="out"/>
<feColorMatrix type="matrix" values="0 0 0 0 0 0 0 0 0 0.138 0 0 0 0 0.36 0 0 0 0.42 0"/>
<feBlend mode="normal" in2="BackgroundImageFix" result="effect1_dropShadow_9_40"/>
<feBlend mode="normal" in="SourceGraphic" in2="effect1_dropShadow_9_40" result="shape"/>
</filter>
<filter id="filter2_d_9_40" x="158.5" y="22.6258" width="152.786" height="225.939" filterUnits="userSpaceOnUse" color-interpolation-filters="sRGB">
<feFlood flood-opacity="0" result="BackgroundImageFix"/>
<feColorMatrix in="SourceAlpha" type="matrix" values="0 0 0 0 0 0 0 0 0 0 0 0 0 0 0 0 0 0 127 0" result="hardAlpha"/>
<feOffset dx="-4" dy="6"/>
<feGaussianBlur stdDeviation="5.75"/>
<feComposite in2="hardAlpha" operator="out"/>
<feColorMatrix type="matrix" values="0 0 0 0 0 0 0 0 0 0.0325731 0 0 0 0 0.0870833 0 0 0 0.2 0"/>
<feBlend mode="normal" in2="BackgroundImageFix" result="effect1_dropShadow_9_40"/>
<feBlend mode="normal" in="SourceGraphic" in2="effect1_dropShadow_9_40" result="shape"/>
</filter>
<filter id="filter3_d_9_40" x="177.273" y="29.5571" width="123.24" height="87.7773" filterUnits="userSpaceOnUse" color-interpolation-filters="sRGB">
<feFlood flood-opacity="0" result="BackgroundImageFix"/>
<feColorMatrix in="SourceAlpha" type="matrix" values="0 0 0 0 0 0 0 0 0 0 0 0 0 0 0 0 0 0 127 0" result="hardAlpha"/>
<feOffset dy="-3"/>
<feGaussianBlur stdDeviation="3.1"/>
<feComposite in2="hardAlpha" operator="out"/>
<feColorMatrix type="matrix" values="0 0 0 0 0 0 0 0 0 0.138 0 0 0 0 0.36 0 0 0 0.42 0"/>
<feBlend mode="normal" in2="BackgroundImageFix" result="effect1_dropShadow_9_40"/>
<feBlend mode="normal" in="SourceGraphic" in2="effect1_dropShadow_9_40" result="shape"/>
</filter>
<linearGradient id="paint0_linear_9_40" x1="157.5" y1="9.56655e-06" x2="157.5" y2="321" gradientUnits="userSpaceOnUse">
<stop stop-color="#2246EE"/>
<stop offset="1" stop-color="#2B7FFF"/>
</linearGradient>
<clipPath id="clip0_9_40">
<rect x="16.5428" y="14.662" width="268.714" height="172.161" rx="10" fill="white"/>
</clipPath>
</defs>
</svg>
