<svg width="315" height="301" viewBox="0 0 315 301" fill="none" xmlns="http://www.w3.org/2000/svg">
<path d="M7.11426 242.543H307.886V274.4C307.886 285.446 298.931 294.4 287.886 294.4H27.1143C16.0686 294.4 7.11426 285.446 7.11426 274.4V242.543Z" fill="#001E50" fill-opacity="0.5"/>
<g filter="url(#filter0_d_9_122)">
<g clip-path="url(#clip0_9_122)">
<rect x="16.5428" y="14.3721" width="268.714" height="168.771" rx="10" fill="#001651"/>
<rect x="29.5" y="164.5" width="45" height="12" rx="6" stroke="white"/>
<path d="M39 168.25H42" stroke="white" stroke-linecap="round"/>
<path d="M36 170.25L41 170.25" stroke="white" stroke-linecap="round"/>
<path d="M35 172.75L38 172.75" stroke="white" stroke-linecap="round"/>
<path d="M47.4167 170.732H49.5107V171.392H47.4167V170.732ZM47.4827 173H46.7027V168.8H49.7687V169.454H47.4827V173ZM50.3924 173V169.796H51.1064V170.678L51.0224 170.42C51.1184 170.204 51.2684 170.04 51.4724 169.928C51.6804 169.816 51.9384 169.76 52.2464 169.76V170.474C52.2144 170.466 52.1844 170.462 52.1564 170.462C52.1284 170.458 52.1004 170.456 52.0724 170.456C51.7884 170.456 51.5624 170.54 51.3944 170.708C51.2264 170.872 51.1424 171.118 51.1424 171.446V173H50.3924ZM54.6281 173V172.352L54.5861 172.214V171.08C54.5861 170.86 54.5201 170.69 54.3881 170.57C54.2561 170.446 54.0561 170.384 53.7881 170.384C53.6081 170.384 53.4301 170.412 53.2541 170.468C53.0821 170.524 52.9361 170.602 52.8161 170.702L52.5221 170.156C52.6941 170.024 52.8981 169.926 53.1341 169.862C53.3741 169.794 53.6221 169.76 53.8781 169.76C54.3421 169.76 54.7001 169.872 54.9521 170.096C55.2081 170.316 55.3361 170.658 55.3361 171.122V173H54.6281ZM53.6201 173.042C53.3801 173.042 53.1701 173.002 52.9901 172.922C52.8101 172.838 52.6701 172.724 52.5701 172.58C52.4741 172.432 52.4261 172.266 52.4261 172.082C52.4261 171.902 52.4681 171.74 52.5521 171.596C52.6401 171.452 52.7821 171.338 52.9781 171.254C53.1741 171.17 53.4341 171.128 53.7581 171.128H54.6881V171.626H53.8121C53.5561 171.626 53.3841 171.668 53.2961 171.752C53.2081 171.832 53.1641 171.932 53.1641 172.052C53.1641 172.188 53.2181 172.296 53.3261 172.376C53.4341 172.456 53.5841 172.496 53.7761 172.496C53.9601 172.496 54.1241 172.454 54.2681 172.37C54.4161 172.286 54.5221 172.162 54.5861 171.998L54.7121 172.448C54.6401 172.636 54.5101 172.782 54.3221 172.886C54.1381 172.99 53.9041 173.042 53.6201 173.042ZM60.3426 169.76C60.5986 169.76 60.8246 169.81 61.0206 169.91C61.2206 170.01 61.3766 170.164 61.4886 170.372C61.6006 170.576 61.6566 170.84 61.6566 171.164V173H60.9066V171.26C60.9066 170.976 60.8446 170.764 60.7206 170.624C60.5966 170.484 60.4186 170.414 60.1866 170.414C60.0226 170.414 59.8766 170.45 59.7486 170.522C59.6246 170.594 59.5266 170.7 59.4546 170.84C59.3866 170.98 59.3526 171.158 59.3526 171.374V173H58.6026V171.26C58.6026 170.976 58.5406 170.764 58.4166 170.624C58.2926 170.484 58.1146 170.414 57.8826 170.414C57.7186 170.414 57.5726 170.45 57.4446 170.522C57.3206 170.594 57.2226 170.7 57.1506 170.84C57.0826 170.98 57.0486 171.158 57.0486 171.374V173H56.2986V169.796H57.0126V170.648L56.8866 170.396C56.9946 170.188 57.1506 170.03 57.3546 169.922C57.5626 169.814 57.7986 169.76 58.0626 169.76C58.3626 169.76 58.6226 169.834 58.8426 169.982C59.0666 170.13 59.2146 170.354 59.2866 170.654L58.9926 170.552C59.0966 170.312 59.2686 170.12 59.5086 169.976C59.7486 169.832 60.0266 169.76 60.3426 169.76ZM64.1269 173.042C63.7709 173.042 63.4589 172.972 63.1909 172.832C62.9269 172.688 62.7209 172.492 62.5729 172.244C62.4289 171.996 62.3569 171.714 62.3569 171.398C62.3569 171.078 62.4269 170.796 62.5669 170.552C62.7109 170.304 62.9069 170.11 63.1549 169.97C63.4069 169.83 63.6929 169.76 64.0129 169.76C64.3249 169.76 64.6029 169.828 64.8469 169.964C65.0909 170.1 65.2829 170.292 65.4229 170.54C65.5629 170.788 65.6329 171.08 65.6329 171.416C65.6329 171.448 65.6309 171.484 65.6269 171.524C65.6269 171.564 65.6249 171.602 65.6209 171.638H62.9509V171.14H65.2249L64.9309 171.296C64.9349 171.112 64.8969 170.95 64.8169 170.81C64.7369 170.67 64.6269 170.56 64.4869 170.48C64.3509 170.4 64.1929 170.36 64.0129 170.36C63.8289 170.36 63.6669 170.4 63.5269 170.48C63.3909 170.56 63.2829 170.672 63.2029 170.816C63.1269 170.956 63.0889 171.122 63.0889 171.314V171.434C63.0889 171.626 63.1329 171.796 63.2209 171.944C63.3089 172.092 63.4329 172.206 63.5929 172.286C63.7529 172.366 63.9369 172.406 64.1449 172.406C64.3249 172.406 64.4869 172.378 64.6309 172.322C64.7749 172.266 64.9029 172.178 65.0149 172.058L65.4169 172.52C65.2729 172.688 65.0909 172.818 64.8709 172.91C64.6549 172.998 64.4069 173.042 64.1269 173.042Z" fill="white"/>
<g opacity="0.58">
<path d="M16.5428 24.3721C16.5428 18.8492 21.02 14.3721 26.5428 14.3721H291.543C297.066 14.3721 301.543 18.8492 301.543 24.3721V133.372H16.5428V24.3721Z" fill="#6BA6FF"/>
</g>
<rect x="27" y="145" width="58" height="11" rx="5.5" fill="#6BA6FF" fill-opacity="0.5"/>
<rect x="91" y="145" width="106" height="11" rx="5.5" fill="#6BA6FF" fill-opacity="0.5"/>
<rect x="81" y="165" width="49" height="9" rx="4.5" fill="#6BA6FF" fill-opacity="0.5"/>
<rect x="241.543" y="147.372" width="49" height="9" rx="4.5" fill="#6BA6FF" fill-opacity="0.5"/>
<g filter="url(#filter1_d_9_122)">
<path d="M56.5428 54.3721C56.5428 48.297 61.4677 43.3721 67.5428 43.3721H250.543C256.618 43.3721 261.543 48.297 261.543 54.3721V134.372H56.5428V54.3721Z" fill="#002075"/>
</g>
<circle cx="68.5428" cy="53.3721" r="3" fill="#6BA6FF"/>
<circle cx="77.5428" cy="53.3721" r="3" fill="#6BA6FF"/>
<circle cx="86.5428" cy="53.3721" r="3" fill="#6BA6FF"/>
<rect x="63.5428" y="63.3721" width="189" height="2" rx="1" fill="#6BA6FF" fill-opacity="0.5"/>
<path d="M137.052 118.108L110.556 106.46C108.892 105.777 108.06 104.604 108.06 102.94C108.06 102.129 108.273 101.447 108.7 100.892C109.127 100.337 109.745 99.8894 110.556 99.5481L137.052 87.8361C137.649 87.5801 138.183 87.5374 138.652 87.7081C139.164 87.8361 139.569 88.0921 139.868 88.4761C140.167 88.8601 140.337 89.3081 140.38 89.8201C140.423 90.3321 140.316 90.8228 140.06 91.2921C139.847 91.7188 139.42 92.0601 138.78 92.3161L110.492 104.604V101.404L138.78 113.692C139.42 113.948 139.847 114.311 140.06 114.78C140.316 115.207 140.423 115.676 140.38 116.188C140.337 116.657 140.167 117.105 139.868 117.532C139.569 117.916 139.164 118.172 138.652 118.3C138.183 118.428 137.649 118.364 137.052 118.108ZM147.523 123.42C147.31 124.103 146.968 124.593 146.499 124.892C146.03 125.191 145.518 125.34 144.963 125.34C144.408 125.34 143.896 125.191 143.427 124.892C143 124.636 142.702 124.252 142.531 123.74C142.318 123.228 142.318 122.609 142.531 121.884L157.571 75.2921C157.784 74.6094 158.126 74.1188 158.595 73.8201C159.064 73.4788 159.555 73.3294 160.067 73.3721C160.622 73.3721 161.112 73.5214 161.539 73.8201C162.008 74.0761 162.328 74.4601 162.499 74.9721C162.712 75.4414 162.734 76.0388 162.563 76.7641L147.523 123.42ZM168.123 118.108C167.526 118.364 166.971 118.428 166.459 118.3C165.99 118.172 165.606 117.916 165.307 117.532C165.008 117.105 164.838 116.657 164.795 116.188C164.752 115.676 164.859 115.207 165.115 114.78C165.371 114.311 165.776 113.948 166.331 113.692L194.683 101.404V104.604L166.331 92.3161C165.776 92.0601 165.371 91.7188 165.115 91.2921C164.859 90.8228 164.752 90.3321 164.795 89.8201C164.838 89.3081 165.008 88.8601 165.307 88.4761C165.606 88.0921 165.99 87.8361 166.459 87.7081C166.971 87.5374 167.526 87.5801 168.123 87.8361L194.619 99.5481C196.283 100.231 197.115 101.361 197.115 102.94C197.115 103.751 196.902 104.455 196.475 105.052C196.048 105.649 195.43 106.119 194.619 106.46L168.123 118.108Z" fill="#355EA8"/>
</g>
<rect x="17.5428" y="15.3721" width="266.714" height="166.771" rx="9" stroke="#0065FF" stroke-opacity="0.5" stroke-width="2"/>
</g>
<g filter="url(#filter2_d_9_122)">
<rect x="174.5" y="28.0718" width="128.787" height="197.943" rx="10.5" fill="#001651" stroke="#012996"/>
<g filter="url(#filter3_d_9_122)">
<path d="M183.474 44.9938C183.474 41.1278 186.608 37.9938 190.474 37.9938H283.313C289.388 37.9938 294.313 42.9187 294.313 48.9938V111.887H183.474V44.9938Z" fill="#002075"/>
</g>
<rect x="188.21" y="52.5483" width="102.313" height="1.27953" rx="0.639767" fill="#6BA6FF" fill-opacity="0.5"/>
<rect x="192" y="64.8634" width="30.3151" height="1.11959" rx="0.559796" fill="#6BA6FF" fill-opacity="0.5"/>
<rect x="192" y="78.2991" width="19.8943" height="1.11959" rx="0.559796" fill="#6BA6FF" fill-opacity="0.5"/>
<rect x="192" y="96.2125" width="19.8943" height="1.11959" rx="0.559796" fill="#6BA6FF" fill-opacity="0.5"/>
<rect x="192" y="71.5822" width="30.3151" height="1.11959" rx="0.559796" fill="#6BA6FF" fill-opacity="0.5"/>
<rect x="192" y="85.017" width="19.8943" height="1.11959" rx="0.559796" fill="#6BA6FF" fill-opacity="0.5"/>
<rect x="192" y="100.691" width="19.8943" height="1.11959" rx="0.559796" fill="#6BA6FF" fill-opacity="0.5"/>
<rect x="195.789" y="67.1036" width="30.3151" height="1.11959" rx="0.559796" fill="#6BA6FF" fill-opacity="0.5"/>
<rect x="192" y="67.1036" width="2.84204" height="1.11959" rx="0.559796" fill="#6BA6FF" fill-opacity="0.5"/>
<rect x="192" y="73.8206" width="2.84204" height="1.11959" rx="0.559796" fill="#6BA6FF" fill-opacity="0.5"/>
<rect x="192" y="91.7339" width="2.84204" height="1.11959" rx="0.559796" fill="#6BA6FF" fill-opacity="0.5"/>
<rect x="193.894" y="80.5384" width="20.8416" height="1.11959" rx="0.559796" fill="#6BA6FF" fill-opacity="0.5"/>
<rect x="193.894" y="98.4518" width="20.8416" height="1.11959" rx="0.559796" fill="#6BA6FF" fill-opacity="0.5"/>
<rect x="195.789" y="73.8206" width="30.3151" height="1.11959" rx="0.559796" fill="#6BA6FF" fill-opacity="0.5"/>
<rect x="195.789" y="91.7339" width="30.3151" height="1.11959" rx="0.559796" fill="#6BA6FF" fill-opacity="0.5"/>
<rect x="194.842" y="87.2554" width="19.8943" height="1.11959" rx="0.559796" fill="#6BA6FF" fill-opacity="0.5"/>
<rect x="194.842" y="102.93" width="19.8943" height="1.11959" rx="0.559796" fill="#6BA6FF" fill-opacity="0.5"/>
<rect x="192" y="69.342" width="13.2629" height="1.11959" rx="0.559796" fill="#6BA6FF" fill-opacity="0.5"/>
<rect x="192" y="82.7768" width="8.52612" height="1.11959" rx="0.559796" fill="#6BA6FF" fill-opacity="0.5"/>
<rect x="192" y="76.0598" width="13.2629" height="1.11959" rx="0.559796" fill="#6BA6FF" fill-opacity="0.5"/>
<rect x="192" y="93.9732" width="13.2629" height="1.11959" rx="0.559796" fill="#6BA6FF" fill-opacity="0.5"/>
<rect x="192" y="89.4946" width="8.52612" height="1.11959" rx="0.559796" fill="#6BA6FF" fill-opacity="0.5"/>
<rect x="206.21" y="69.342" width="13.2629" height="1.11959" rx="0.559796" fill="#6BA6FF" fill-opacity="0.5"/>
<rect x="201.473" y="82.7768" width="8.52612" height="1.11959" rx="0.559796" fill="#6BA6FF" fill-opacity="0.5"/>
<rect x="206.21" y="76.0598" width="16.1049" height="1.11959" rx="0.559796" fill="#6BA6FF" fill-opacity="0.5"/>
<rect x="206.21" y="93.9732" width="16.1049" height="1.11959" rx="0.559796" fill="#6BA6FF" fill-opacity="0.5"/>
<rect x="201.473" y="89.4946" width="8.52612" height="1.11959" rx="0.559796" fill="#6BA6FF" fill-opacity="0.5"/>
<rect x="213.789" y="78.2987" width="19.8943" height="1.11959" rx="0.559796" fill="#6BA6FF" fill-opacity="0.5"/>
<rect x="213.789" y="96.2121" width="19.8943" height="1.11959" rx="0.559796" fill="#6BA6FF" fill-opacity="0.5"/>
<rect x="212.841" y="85.0166" width="20.8416" height="1.11959" rx="0.559796" fill="#6BA6FF" fill-opacity="0.5"/>
<rect x="212.841" y="100.691" width="20.8416" height="1.11959" rx="0.559796" fill="#6BA6FF" fill-opacity="0.5"/>
<rect x="215.683" y="80.538" width="20.8416" height="1.11959" rx="0.559796" fill="#6BA6FF" fill-opacity="0.5"/>
<rect x="215.683" y="98.4514" width="20.8416" height="1.11959" rx="0.559796" fill="#6BA6FF" fill-opacity="0.5"/>
<rect x="215.683" y="87.255" width="20.8416" height="1.11959" rx="0.559796" fill="#6BA6FF" fill-opacity="0.5"/>
<rect x="215.683" y="102.93" width="20.8416" height="1.11959" rx="0.559796" fill="#6BA6FF" fill-opacity="0.5"/>
<rect x="210.947" y="82.7764" width="11.3682" height="1.11959" rx="0.559796" fill="#6BA6FF" fill-opacity="0.5"/>
<rect x="211.894" y="89.4943" width="10.4208" height="1.11959" rx="0.559796" fill="#6BA6FF" fill-opacity="0.5"/>
<rect x="223.262" y="82.7764" width="8.52612" height="1.11959" rx="0.559796" fill="#6BA6FF" fill-opacity="0.5"/>
<rect x="223.262" y="89.4943" width="8.52612" height="1.11959" rx="0.559796" fill="#6BA6FF" fill-opacity="0.5"/>
<circle cx="190.578" cy="45.0991" r="2.36837" fill="#6BA6FF"/>
<circle cx="198.157" cy="45.0991" r="2.36837" fill="#6BA6FF"/>
<circle cx="205.736" cy="45.0991" r="2.36837" fill="#6BA6FF"/>
<path d="M262.946 87.2885L254.666 83.6485C254.146 83.4352 253.886 83.0685 253.886 82.5485C253.886 82.2952 253.953 82.0818 254.086 81.9085C254.22 81.7352 254.413 81.5952 254.666 81.4885L262.946 77.8285C263.133 77.7485 263.3 77.7352 263.446 77.7885C263.606 77.8285 263.733 77.9085 263.826 78.0285C263.92 78.1485 263.973 78.2885 263.986 78.4485C264 78.6085 263.966 78.7618 263.886 78.9085C263.82 79.0418 263.686 79.1485 263.486 79.2285L254.646 83.0685V82.0685L263.486 85.9085C263.686 85.9885 263.82 86.1018 263.886 86.2485C263.966 86.3818 264 86.5285 263.986 86.6885C263.973 86.8352 263.92 86.9752 263.826 87.1085C263.733 87.2285 263.606 87.3085 263.446 87.3485C263.3 87.3885 263.133 87.3685 262.946 87.2885ZM266.219 88.9485C266.152 89.1618 266.045 89.3152 265.899 89.4085C265.752 89.5018 265.592 89.5485 265.419 89.5485C265.245 89.5485 265.085 89.5018 264.939 89.4085C264.805 89.3285 264.712 89.2085 264.659 89.0485C264.592 88.8885 264.592 88.6952 264.659 88.4685L269.359 73.9085C269.425 73.6952 269.532 73.5418 269.679 73.4485C269.825 73.3418 269.979 73.2952 270.139 73.3085C270.312 73.3085 270.465 73.3552 270.599 73.4485C270.745 73.5285 270.845 73.6485 270.899 73.8085C270.965 73.9552 270.972 74.1418 270.919 74.3685L266.219 88.9485ZM272.656 87.2885C272.469 87.3685 272.296 87.3885 272.136 87.3485C271.989 87.3085 271.869 87.2285 271.776 87.1085C271.683 86.9752 271.629 86.8352 271.616 86.6885C271.603 86.5285 271.636 86.3818 271.716 86.2485C271.796 86.1018 271.923 85.9885 272.096 85.9085L280.956 82.0685V83.0685L272.096 79.2285C271.923 79.1485 271.796 79.0418 271.716 78.9085C271.636 78.7618 271.603 78.6085 271.616 78.4485C271.629 78.2885 271.683 78.1485 271.776 78.0285C271.869 77.9085 271.989 77.8285 272.136 77.7885C272.296 77.7352 272.469 77.7485 272.656 77.8285L280.936 81.4885C281.456 81.7018 281.716 82.0552 281.716 82.5485C281.716 82.8018 281.649 83.0218 281.516 83.2085C281.383 83.3952 281.189 83.5418 280.936 83.6485L272.656 87.2885Z" fill="#355EA8"/>
<rect x="188.21" y="127.991" width="56.8408" height="14.2102" fill="#002075"/>
<rect x="188.21" y="148.832" width="49.262" height="14.2102" fill="#002075"/>
<rect x="188.21" y="169.674" width="49.262" height="14.2102" fill="#002075"/>
<rect x="241.262" y="148.832" width="49.262" height="14.2102" fill="#002075"/>
<rect x="241.262" y="169.674" width="49.262" height="14.2102" fill="#002075"/>
<rect x="214.736" y="190.516" width="49.262" height="5.68408" fill="#002075"/>
<rect x="214.736" y="199.989" width="49.262" height="5.68408" fill="#002075"/>
</g>
<path d="M89.8713 265.397C89.106 265.397 88.3733 265.29 87.6733 265.075C86.9733 264.851 86.418 264.566 86.0073 264.221L86.6373 262.807C87.0293 263.115 87.5147 263.372 88.0933 263.577C88.672 263.782 89.2647 263.885 89.8713 263.885C90.3847 263.885 90.8 263.829 91.1173 263.717C91.4347 263.605 91.668 263.456 91.8173 263.269C91.9667 263.073 92.0413 262.854 92.0413 262.611C92.0413 262.312 91.934 262.074 91.7193 261.897C91.5047 261.71 91.2247 261.566 90.8793 261.463C90.5433 261.351 90.1653 261.248 89.7453 261.155C89.3347 261.062 88.9193 260.954 88.4993 260.833C88.0887 260.702 87.7107 260.539 87.3653 260.343C87.0293 260.138 86.754 259.867 86.5393 259.531C86.3247 259.195 86.2173 258.766 86.2173 258.243C86.2173 257.711 86.3573 257.226 86.6373 256.787C86.9267 256.339 87.3607 255.984 87.9393 255.723C88.5273 255.452 89.2693 255.317 90.1653 255.317C90.7533 255.317 91.3367 255.392 91.9153 255.541C92.494 255.69 92.998 255.905 93.4273 256.185L92.8533 257.599C92.4147 257.338 91.962 257.146 91.4953 257.025C91.0287 256.894 90.5807 256.829 90.1513 256.829C89.6473 256.829 89.2367 256.89 88.9193 257.011C88.6113 257.132 88.3827 257.291 88.2333 257.487C88.0933 257.683 88.0233 257.907 88.0233 258.159C88.0233 258.458 88.126 258.7 88.3313 258.887C88.546 259.064 88.8213 259.204 89.1573 259.307C89.5027 259.41 89.8853 259.512 90.3053 259.615C90.7253 259.708 91.1407 259.816 91.5513 259.937C91.9713 260.058 92.3493 260.217 92.6853 260.413C93.0307 260.609 93.306 260.875 93.5113 261.211C93.726 261.547 93.8333 261.972 93.8333 262.485C93.8333 263.008 93.6887 263.493 93.3993 263.941C93.1193 264.38 92.6853 264.734 92.0973 265.005C91.5093 265.266 90.7673 265.397 89.8713 265.397ZM98.984 265.355C98.1534 265.355 97.4254 265.192 96.8 264.865C96.184 264.529 95.7034 264.072 95.358 263.493C95.022 262.914 94.854 262.256 94.854 261.519C94.854 260.772 95.0174 260.114 95.344 259.545C95.68 258.966 96.1374 258.514 96.716 258.187C97.304 257.86 97.9714 257.697 98.718 257.697C99.446 257.697 100.095 257.856 100.664 258.173C101.233 258.49 101.681 258.938 102.008 259.517C102.335 260.096 102.498 260.777 102.498 261.561C102.498 261.636 102.493 261.72 102.484 261.813C102.484 261.906 102.479 261.995 102.47 262.079H96.24V260.917H101.546L100.86 261.281C100.869 260.852 100.781 260.474 100.594 260.147C100.407 259.82 100.151 259.564 99.824 259.377C99.5067 259.19 99.138 259.097 98.718 259.097C98.2887 259.097 97.9107 259.19 97.584 259.377C97.2667 259.564 97.0147 259.825 96.828 260.161C96.6507 260.488 96.562 260.875 96.562 261.323V261.603C96.562 262.051 96.6647 262.448 96.87 262.793C97.0754 263.138 97.3647 263.404 97.738 263.591C98.1114 263.778 98.5407 263.871 99.026 263.871C99.446 263.871 99.824 263.806 100.16 263.675C100.496 263.544 100.795 263.339 101.056 263.059L101.994 264.137C101.658 264.529 101.233 264.832 100.72 265.047C100.216 265.252 99.6374 265.355 98.984 265.355ZM104.179 265.257V254.869H105.929V265.257H104.179ZM111.74 265.355C110.909 265.355 110.181 265.192 109.556 264.865C108.94 264.529 108.459 264.072 108.114 263.493C107.778 262.914 107.61 262.256 107.61 261.519C107.61 260.772 107.773 260.114 108.1 259.545C108.436 258.966 108.893 258.514 109.472 258.187C110.06 257.86 110.727 257.697 111.474 257.697C112.202 257.697 112.851 257.856 113.42 258.173C113.989 258.49 114.437 258.938 114.764 259.517C115.091 260.096 115.254 260.777 115.254 261.561C115.254 261.636 115.249 261.72 115.24 261.813C115.24 261.906 115.235 261.995 115.226 262.079H108.996V260.917H114.302L113.616 261.281C113.625 260.852 113.537 260.474 113.35 260.147C113.163 259.82 112.907 259.564 112.58 259.377C112.263 259.19 111.894 259.097 111.474 259.097C111.045 259.097 110.667 259.19 110.34 259.377C110.023 259.564 109.771 259.825 109.584 260.161C109.407 260.488 109.318 260.875 109.318 261.323V261.603C109.318 262.051 109.421 262.448 109.626 262.793C109.831 263.138 110.121 263.404 110.494 263.591C110.867 263.778 111.297 263.871 111.782 263.871C112.202 263.871 112.58 263.806 112.916 263.675C113.252 263.544 113.551 263.339 113.812 263.059L114.75 264.137C114.414 264.529 113.989 264.832 113.476 265.047C112.972 265.252 112.393 265.355 111.74 265.355ZM120.365 265.355C119.581 265.355 118.881 265.192 118.265 264.865C117.658 264.529 117.182 264.072 116.837 263.493C116.492 262.914 116.319 262.256 116.319 261.519C116.319 260.772 116.492 260.114 116.837 259.545C117.182 258.966 117.658 258.514 118.265 258.187C118.881 257.86 119.581 257.697 120.365 257.697C121.093 257.697 121.732 257.846 122.283 258.145C122.843 258.434 123.268 258.864 123.557 259.433L122.213 260.217C121.989 259.862 121.714 259.601 121.387 259.433C121.07 259.265 120.724 259.181 120.351 259.181C119.922 259.181 119.534 259.274 119.189 259.461C118.844 259.648 118.573 259.918 118.377 260.273C118.181 260.618 118.083 261.034 118.083 261.519C118.083 262.004 118.181 262.424 118.377 262.779C118.573 263.124 118.844 263.39 119.189 263.577C119.534 263.764 119.922 263.857 120.351 263.857C120.724 263.857 121.07 263.773 121.387 263.605C121.714 263.437 121.989 263.176 122.213 262.821L123.557 263.605C123.268 264.165 122.843 264.599 122.283 264.907C121.732 265.206 121.093 265.355 120.365 265.355ZM127.979 265.355C127.158 265.355 126.523 265.145 126.075 264.725C125.627 264.296 125.403 263.666 125.403 262.835V256.129H127.153V262.793C127.153 263.148 127.242 263.423 127.419 263.619C127.606 263.815 127.863 263.913 128.189 263.913C128.581 263.913 128.908 263.81 129.169 263.605L129.659 264.851C129.454 265.019 129.202 265.145 128.903 265.229C128.605 265.313 128.297 265.355 127.979 265.355ZM124.171 259.237V257.837H129.155V259.237H124.171ZM139.574 265.257V263.745L139.476 263.423V260.777C139.476 260.264 139.322 259.867 139.014 259.587C138.706 259.298 138.239 259.153 137.614 259.153C137.194 259.153 136.779 259.218 136.368 259.349C135.967 259.48 135.626 259.662 135.346 259.895L134.66 258.621C135.061 258.313 135.537 258.084 136.088 257.935C136.648 257.776 137.227 257.697 137.824 257.697C138.907 257.697 139.742 257.958 140.33 258.481C140.927 258.994 141.226 259.792 141.226 260.875V265.257H139.574ZM137.222 265.355C136.662 265.355 136.172 265.262 135.752 265.075C135.332 264.879 135.005 264.613 134.772 264.277C134.548 263.932 134.436 263.544 134.436 263.115C134.436 262.695 134.534 262.317 134.73 261.981C134.935 261.645 135.267 261.379 135.724 261.183C136.181 260.987 136.788 260.889 137.544 260.889H139.714V262.051H137.67C137.073 262.051 136.671 262.149 136.466 262.345C136.261 262.532 136.158 262.765 136.158 263.045C136.158 263.362 136.284 263.614 136.536 263.801C136.788 263.988 137.138 264.081 137.586 264.081C138.015 264.081 138.398 263.983 138.734 263.787C139.079 263.591 139.327 263.302 139.476 262.919L139.77 263.969C139.602 264.408 139.299 264.748 138.86 264.991C138.431 265.234 137.885 265.355 137.222 265.355ZM150.771 265.355C149.987 265.355 149.287 265.192 148.671 264.865C148.064 264.529 147.588 264.072 147.243 263.493C146.898 262.914 146.725 262.256 146.725 261.519C146.725 260.772 146.898 260.114 147.243 259.545C147.588 258.966 148.064 258.514 148.671 258.187C149.287 257.86 149.987 257.697 150.771 257.697C151.499 257.697 152.138 257.846 152.689 258.145C153.249 258.434 153.674 258.864 153.963 259.433L152.619 260.217C152.395 259.862 152.12 259.601 151.793 259.433C151.476 259.265 151.13 259.181 150.757 259.181C150.328 259.181 149.94 259.274 149.595 259.461C149.25 259.648 148.979 259.918 148.783 260.273C148.587 260.618 148.489 261.034 148.489 261.519C148.489 262.004 148.587 262.424 148.783 262.779C148.979 263.124 149.25 263.39 149.595 263.577C149.94 263.764 150.328 263.857 150.757 263.857C151.13 263.857 151.476 263.773 151.793 263.605C152.12 263.437 152.395 263.176 152.619 262.821L153.963 263.605C153.674 264.165 153.249 264.599 152.689 264.907C152.138 265.206 151.499 265.355 150.771 265.355ZM158.727 265.355C157.961 265.355 157.28 265.192 156.683 264.865C156.085 264.529 155.614 264.072 155.269 263.493C154.923 262.914 154.751 262.256 154.751 261.519C154.751 260.772 154.923 260.114 155.269 259.545C155.614 258.966 156.085 258.514 156.683 258.187C157.28 257.86 157.961 257.697 158.727 257.697C159.501 257.697 160.187 257.86 160.785 258.187C161.391 258.514 161.863 258.962 162.199 259.531C162.544 260.1 162.717 260.763 162.717 261.519C162.717 262.256 162.544 262.914 162.199 263.493C161.863 264.072 161.391 264.529 160.785 264.865C160.187 265.192 159.501 265.355 158.727 265.355ZM158.727 263.857C159.156 263.857 159.539 263.764 159.875 263.577C160.211 263.39 160.472 263.12 160.659 262.765C160.855 262.41 160.953 261.995 160.953 261.519C160.953 261.034 160.855 260.618 160.659 260.273C160.472 259.918 160.211 259.648 159.875 259.461C159.539 259.274 159.161 259.181 158.741 259.181C158.311 259.181 157.929 259.274 157.593 259.461C157.266 259.648 157.005 259.918 156.809 260.273C156.613 260.618 156.515 261.034 156.515 261.519C156.515 261.995 156.613 262.41 156.809 262.765C157.005 263.12 157.266 263.39 157.593 263.577C157.929 263.764 158.307 263.857 158.727 263.857ZM173.826 257.697C174.423 257.697 174.951 257.814 175.408 258.047C175.875 258.28 176.239 258.64 176.5 259.125C176.761 259.601 176.892 260.217 176.892 260.973V265.257H175.142V261.197C175.142 260.534 174.997 260.04 174.708 259.713C174.419 259.386 174.003 259.223 173.462 259.223C173.079 259.223 172.739 259.307 172.44 259.475C172.151 259.643 171.922 259.89 171.754 260.217C171.595 260.544 171.516 260.959 171.516 261.463V265.257H169.766V261.197C169.766 260.534 169.621 260.04 169.332 259.713C169.043 259.386 168.627 259.223 168.086 259.223C167.703 259.223 167.363 259.307 167.064 259.475C166.775 259.643 166.546 259.89 166.378 260.217C166.219 260.544 166.14 260.959 166.14 261.463V265.257H164.39V257.781H166.056V259.769L165.762 259.181C166.014 258.696 166.378 258.327 166.854 258.075C167.339 257.823 167.89 257.697 168.506 257.697C169.206 257.697 169.813 257.87 170.326 258.215C170.849 258.56 171.194 259.083 171.362 259.783L170.676 259.545C170.919 258.985 171.32 258.537 171.88 258.201C172.44 257.865 173.089 257.697 173.826 257.697ZM183.272 265.355C182.666 265.355 182.11 265.215 181.606 264.935C181.112 264.655 180.715 264.235 180.416 263.675C180.127 263.106 179.982 262.387 179.982 261.519C179.982 260.642 180.122 259.923 180.402 259.363C180.692 258.803 181.084 258.388 181.578 258.117C182.073 257.837 182.638 257.697 183.272 257.697C184.01 257.697 184.658 257.856 185.218 258.173C185.788 258.49 186.236 258.934 186.562 259.503C186.898 260.072 187.066 260.744 187.066 261.519C187.066 262.294 186.898 262.97 186.562 263.549C186.236 264.118 185.788 264.562 185.218 264.879C184.658 265.196 184.01 265.355 183.272 265.355ZM179.128 267.973V257.781H180.794V259.545L180.738 261.533L180.878 263.521V267.973H179.128ZM183.076 263.857C183.496 263.857 183.87 263.764 184.196 263.577C184.532 263.39 184.798 263.12 184.994 262.765C185.19 262.41 185.288 261.995 185.288 261.519C185.288 261.034 185.19 260.618 184.994 260.273C184.798 259.918 184.532 259.648 184.196 259.461C183.87 259.274 183.496 259.181 183.076 259.181C182.656 259.181 182.278 259.274 181.942 259.461C181.606 259.648 181.34 259.918 181.144 260.273C180.948 260.618 180.85 261.034 180.85 261.519C180.85 261.995 180.948 262.41 181.144 262.765C181.34 263.12 181.606 263.39 181.942 263.577C182.278 263.764 182.656 263.857 183.076 263.857ZM192.086 265.355C191.321 265.355 190.639 265.192 190.042 264.865C189.445 264.529 188.973 264.072 188.628 263.493C188.283 262.914 188.11 262.256 188.11 261.519C188.11 260.772 188.283 260.114 188.628 259.545C188.973 258.966 189.445 258.514 190.042 258.187C190.639 257.86 191.321 257.697 192.086 257.697C192.861 257.697 193.547 257.86 194.144 258.187C194.751 258.514 195.222 258.962 195.558 259.531C195.903 260.1 196.076 260.763 196.076 261.519C196.076 262.256 195.903 262.914 195.558 263.493C195.222 264.072 194.751 264.529 194.144 264.865C193.547 265.192 192.861 265.355 192.086 265.355ZM192.086 263.857C192.515 263.857 192.898 263.764 193.234 263.577C193.57 263.39 193.831 263.12 194.018 262.765C194.214 262.41 194.312 261.995 194.312 261.519C194.312 261.034 194.214 260.618 194.018 260.273C193.831 259.918 193.57 259.648 193.234 259.461C192.898 259.274 192.52 259.181 192.1 259.181C191.671 259.181 191.288 259.274 190.952 259.461C190.625 259.648 190.364 259.918 190.168 260.273C189.972 260.618 189.874 261.034 189.874 261.519C189.874 261.995 189.972 262.41 190.168 262.765C190.364 263.12 190.625 263.39 190.952 263.577C191.288 263.764 191.666 263.857 192.086 263.857ZM201.991 257.697C202.589 257.697 203.121 257.814 203.587 258.047C204.063 258.28 204.437 258.64 204.707 259.125C204.978 259.601 205.113 260.217 205.113 260.973V265.257H203.363V261.197C203.363 260.534 203.205 260.04 202.887 259.713C202.579 259.386 202.145 259.223 201.585 259.223C201.175 259.223 200.811 259.307 200.493 259.475C200.176 259.643 199.929 259.895 199.751 260.231C199.583 260.558 199.499 260.973 199.499 261.477V265.257H197.749V257.781H199.415V259.797L199.121 259.181C199.383 258.705 199.761 258.341 200.255 258.089C200.759 257.828 201.338 257.697 201.991 257.697ZM210.861 265.355C210.03 265.355 209.302 265.192 208.677 264.865C208.061 264.529 207.58 264.072 207.235 263.493C206.899 262.914 206.731 262.256 206.731 261.519C206.731 260.772 206.894 260.114 207.221 259.545C207.557 258.966 208.014 258.514 208.593 258.187C209.181 257.86 209.848 257.697 210.595 257.697C211.323 257.697 211.972 257.856 212.541 258.173C213.11 258.49 213.558 258.938 213.885 259.517C214.212 260.096 214.375 260.777 214.375 261.561C214.375 261.636 214.37 261.72 214.361 261.813C214.361 261.906 214.356 261.995 214.347 262.079H208.117V260.917H213.423L212.737 261.281C212.746 260.852 212.658 260.474 212.471 260.147C212.284 259.82 212.028 259.564 211.701 259.377C211.384 259.19 211.015 259.097 210.595 259.097C210.166 259.097 209.788 259.19 209.461 259.377C209.144 259.564 208.892 259.825 208.705 260.161C208.528 260.488 208.439 260.875 208.439 261.323V261.603C208.439 262.051 208.542 262.448 208.747 262.793C208.952 263.138 209.242 263.404 209.615 263.591C209.988 263.778 210.418 263.871 210.903 263.871C211.323 263.871 211.701 263.806 212.037 263.675C212.373 263.544 212.672 263.339 212.933 263.059L213.871 264.137C213.535 264.529 213.11 264.832 212.597 265.047C212.093 265.252 211.514 265.355 210.861 265.355ZM220.298 257.697C220.895 257.697 221.427 257.814 221.894 258.047C222.37 258.28 222.743 258.64 223.014 259.125C223.285 259.601 223.42 260.217 223.42 260.973V265.257H221.67V261.197C221.67 260.534 221.511 260.04 221.194 259.713C220.886 259.386 220.452 259.223 219.892 259.223C219.481 259.223 219.117 259.307 218.8 259.475C218.483 259.643 218.235 259.895 218.058 260.231C217.89 260.558 217.806 260.973 217.806 261.477V265.257H216.056V257.781H217.722V259.797L217.428 259.181C217.689 258.705 218.067 258.341 218.562 258.089C219.066 257.828 219.645 257.697 220.298 257.697ZM228.454 265.355C227.633 265.355 226.998 265.145 226.55 264.725C226.102 264.296 225.878 263.666 225.878 262.835V256.129H227.628V262.793C227.628 263.148 227.717 263.423 227.894 263.619C228.081 263.815 228.337 263.913 228.664 263.913C229.056 263.913 229.383 263.81 229.644 263.605L230.134 264.851C229.929 265.019 229.677 265.145 229.378 265.229C229.079 265.313 228.771 265.355 228.454 265.355ZM224.646 259.237V257.837H229.63V259.237H224.646ZM101.201 282.257V273.983C101.201 273.33 101.393 272.802 101.775 272.401C102.158 272 102.709 271.799 103.427 271.799C103.707 271.799 103.978 271.836 104.239 271.911C104.501 271.986 104.72 272.102 104.897 272.261L104.561 273.003C104.421 272.882 104.258 272.793 104.071 272.737C103.885 272.672 103.684 272.639 103.469 272.639C103.049 272.639 102.727 272.756 102.503 272.989C102.279 273.222 102.167 273.568 102.167 274.025V275.145L102.195 275.607V282.257H101.201ZM99.8852 275.733V274.907H104.435V275.733H99.8852ZM108.65 282.327C107.941 282.327 107.302 282.168 106.732 281.851C106.172 281.524 105.729 281.081 105.402 280.521C105.076 279.952 104.912 279.303 104.912 278.575C104.912 277.838 105.076 277.189 105.402 276.629C105.729 276.069 106.172 275.63 106.732 275.313C107.292 274.996 107.932 274.837 108.65 274.837C109.378 274.837 110.022 274.996 110.582 275.313C111.152 275.63 111.595 276.069 111.912 276.629C112.239 277.189 112.402 277.838 112.402 278.575C112.402 279.303 112.239 279.952 111.912 280.521C111.595 281.081 111.152 281.524 110.582 281.851C110.013 282.168 109.369 282.327 108.65 282.327ZM108.65 281.445C109.182 281.445 109.654 281.328 110.064 281.095C110.475 280.852 110.797 280.516 111.03 280.087C111.273 279.648 111.394 279.144 111.394 278.575C111.394 277.996 111.273 277.492 111.03 277.063C110.797 276.634 110.475 276.302 110.064 276.069C109.654 275.826 109.187 275.705 108.664 275.705C108.142 275.705 107.675 275.826 107.264 276.069C106.854 276.302 106.527 276.634 106.284 277.063C106.042 277.492 105.92 277.996 105.92 278.575C105.92 279.144 106.042 279.648 106.284 280.087C106.527 280.516 106.854 280.852 107.264 281.095C107.675 281.328 108.137 281.445 108.65 281.445ZM114.432 282.257V274.907H115.384V276.909L115.286 276.559C115.491 275.999 115.836 275.574 116.322 275.285C116.807 274.986 117.409 274.837 118.128 274.837V275.803C118.09 275.803 118.053 275.803 118.016 275.803C117.978 275.794 117.941 275.789 117.904 275.789C117.129 275.789 116.522 276.027 116.084 276.503C115.645 276.97 115.426 277.637 115.426 278.505V282.257H114.432ZM132.899 274.837C133.496 274.837 134.014 274.954 134.453 275.187C134.901 275.411 135.246 275.756 135.489 276.223C135.741 276.69 135.867 277.278 135.867 277.987V282.257H134.873V278.085C134.873 277.31 134.686 276.727 134.313 276.335C133.949 275.934 133.431 275.733 132.759 275.733C132.255 275.733 131.816 275.84 131.443 276.055C131.079 276.26 130.794 276.564 130.589 276.965C130.393 277.357 130.295 277.833 130.295 278.393V282.257H129.301V278.085C129.301 277.31 129.114 276.727 128.741 276.335C128.368 275.934 127.845 275.733 127.173 275.733C126.678 275.733 126.244 275.84 125.871 276.055C125.498 276.26 125.208 276.564 125.003 276.965C124.807 277.357 124.709 277.833 124.709 278.393V282.257H123.715V274.907H124.667V276.895L124.513 276.545C124.737 276.013 125.096 275.598 125.591 275.299C126.095 274.991 126.688 274.837 127.369 274.837C128.088 274.837 128.699 275.019 129.203 275.383C129.707 275.738 130.034 276.274 130.183 276.993L129.791 276.839C130.006 276.242 130.384 275.761 130.925 275.397C131.476 275.024 132.134 274.837 132.899 274.837ZM141.559 282.327C140.849 282.327 140.21 282.168 139.641 281.851C139.081 281.524 138.637 281.081 138.311 280.521C137.984 279.952 137.821 279.303 137.821 278.575C137.821 277.838 137.984 277.189 138.311 276.629C138.637 276.069 139.081 275.63 139.641 275.313C140.201 274.996 140.84 274.837 141.559 274.837C142.287 274.837 142.931 274.996 143.491 275.313C144.06 275.63 144.503 276.069 144.821 276.629C145.147 277.189 145.311 277.838 145.311 278.575C145.311 279.303 145.147 279.952 144.821 280.521C144.503 281.081 144.06 281.524 143.491 281.851C142.921 282.168 142.277 282.327 141.559 282.327ZM141.559 281.445C142.091 281.445 142.562 281.328 142.973 281.095C143.383 280.852 143.705 280.516 143.939 280.087C144.181 279.648 144.303 279.144 144.303 278.575C144.303 277.996 144.181 277.492 143.939 277.063C143.705 276.634 143.383 276.302 142.973 276.069C142.562 275.826 142.095 275.705 141.573 275.705C141.05 275.705 140.583 275.826 140.173 276.069C139.762 276.302 139.435 276.634 139.193 277.063C138.95 277.492 138.829 277.996 138.829 278.575C138.829 279.144 138.95 279.648 139.193 280.087C139.435 280.516 139.762 280.852 140.173 281.095C140.583 281.328 141.045 281.445 141.559 281.445ZM147.34 282.257V274.907H148.292V276.909L148.194 276.559C148.399 275.999 148.745 275.574 149.23 275.285C149.715 274.986 150.317 274.837 151.036 274.837V275.803C150.999 275.803 150.961 275.803 150.924 275.803C150.887 275.794 150.849 275.789 150.812 275.789C150.037 275.789 149.431 276.027 148.992 276.503C148.553 276.97 148.334 277.637 148.334 278.505V282.257H147.34ZM155.903 282.327C155.138 282.327 154.466 282.168 153.887 281.851C153.309 281.524 152.856 281.081 152.529 280.521C152.203 279.952 152.039 279.303 152.039 278.575C152.039 277.847 152.193 277.203 152.501 276.643C152.819 276.083 153.248 275.644 153.789 275.327C154.34 275 154.956 274.837 155.637 274.837C156.328 274.837 156.939 274.996 157.471 275.313C158.013 275.621 158.437 276.06 158.745 276.629C159.053 277.189 159.207 277.838 159.207 278.575C159.207 278.622 159.203 278.673 159.193 278.729C159.193 278.776 159.193 278.827 159.193 278.883H152.795V278.141H158.661L158.269 278.435C158.269 277.903 158.153 277.432 157.919 277.021C157.695 276.601 157.387 276.274 156.995 276.041C156.603 275.808 156.151 275.691 155.637 275.691C155.133 275.691 154.681 275.808 154.279 276.041C153.878 276.274 153.565 276.601 153.341 277.021C153.117 277.441 153.005 277.922 153.005 278.463V278.617C153.005 279.177 153.127 279.672 153.369 280.101C153.621 280.521 153.967 280.852 154.405 281.095C154.853 281.328 155.362 281.445 155.931 281.445C156.379 281.445 156.795 281.366 157.177 281.207C157.569 281.048 157.905 280.806 158.185 280.479L158.745 281.123C158.419 281.515 158.008 281.814 157.513 282.019C157.028 282.224 156.491 282.327 155.903 282.327ZM167.891 282.327C167.181 282.327 166.542 282.168 165.973 281.851C165.413 281.524 164.969 281.081 164.643 280.521C164.316 279.952 164.153 279.303 164.153 278.575C164.153 277.838 164.316 277.189 164.643 276.629C164.969 276.069 165.413 275.63 165.973 275.313C166.533 274.996 167.172 274.837 167.891 274.837C168.619 274.837 169.263 274.996 169.823 275.313C170.392 275.63 170.835 276.069 171.153 276.629C171.479 277.189 171.643 277.838 171.643 278.575C171.643 279.303 171.479 279.952 171.153 280.521C170.835 281.081 170.392 281.524 169.823 281.851C169.253 282.168 168.609 282.327 167.891 282.327ZM167.891 281.445C168.423 281.445 168.894 281.328 169.305 281.095C169.715 280.852 170.037 280.516 170.271 280.087C170.513 279.648 170.635 279.144 170.635 278.575C170.635 277.996 170.513 277.492 170.271 277.063C170.037 276.634 169.715 276.302 169.305 276.069C168.894 275.826 168.427 275.705 167.905 275.705C167.382 275.705 166.915 275.826 166.505 276.069C166.094 276.302 165.767 276.634 165.525 277.063C165.282 277.492 165.161 277.996 165.161 278.575C165.161 279.144 165.282 279.648 165.525 280.087C165.767 280.516 166.094 280.852 166.505 281.095C166.915 281.328 167.377 281.445 167.891 281.445ZM177.466 282.327C176.831 282.327 176.257 282.182 175.744 281.893C175.231 281.594 174.82 281.17 174.512 280.619C174.213 280.059 174.064 279.378 174.064 278.575C174.064 277.772 174.213 277.096 174.512 276.545C174.811 275.985 175.217 275.56 175.73 275.271C176.243 274.982 176.822 274.837 177.466 274.837C178.166 274.837 178.791 274.996 179.342 275.313C179.902 275.621 180.341 276.06 180.658 276.629C180.975 277.189 181.134 277.838 181.134 278.575C181.134 279.322 180.975 279.975 180.658 280.535C180.341 281.095 179.902 281.534 179.342 281.851C178.791 282.168 178.166 282.327 177.466 282.327ZM173.672 284.973V274.907H174.624V277.119L174.526 278.589L174.666 280.073V284.973H173.672ZM177.396 281.445C177.919 281.445 178.385 281.328 178.796 281.095C179.207 280.852 179.533 280.516 179.776 280.087C180.019 279.648 180.14 279.144 180.14 278.575C180.14 278.006 180.019 277.506 179.776 277.077C179.533 276.648 179.207 276.312 178.796 276.069C178.385 275.826 177.919 275.705 177.396 275.705C176.873 275.705 176.402 275.826 175.982 276.069C175.571 276.312 175.245 276.648 175.002 277.077C174.769 277.506 174.652 278.006 174.652 278.575C174.652 279.144 174.769 279.648 175.002 280.087C175.245 280.516 175.571 280.852 175.982 281.095C176.402 281.328 176.873 281.445 177.396 281.445ZM185.484 282.327C184.794 282.327 184.262 282.14 183.888 281.767C183.515 281.394 183.328 280.866 183.328 280.185V273.283H184.322V280.129C184.322 280.558 184.43 280.89 184.644 281.123C184.868 281.356 185.186 281.473 185.596 281.473C186.035 281.473 186.399 281.347 186.688 281.095L187.038 281.809C186.842 281.986 186.604 282.117 186.324 282.201C186.054 282.285 185.774 282.327 185.484 282.327ZM182.012 275.733V274.907H186.562V275.733H182.012ZM188.848 282.257V274.907H189.842V282.257H188.848ZM189.352 273.283C189.146 273.283 188.974 273.213 188.834 273.073C188.694 272.933 188.624 272.765 188.624 272.569C188.624 272.373 188.694 272.21 188.834 272.079C188.974 271.939 189.146 271.869 189.352 271.869C189.557 271.869 189.73 271.934 189.87 272.065C190.01 272.196 190.08 272.359 190.08 272.555C190.08 272.76 190.01 272.933 189.87 273.073C189.739 273.213 189.566 273.283 189.352 273.283ZM195.603 282.327C194.894 282.327 194.255 282.168 193.685 281.851C193.125 281.524 192.682 281.081 192.355 280.521C192.029 279.952 191.865 279.303 191.865 278.575C191.865 277.838 192.029 277.189 192.355 276.629C192.682 276.069 193.125 275.63 193.685 275.313C194.245 274.996 194.885 274.837 195.603 274.837C196.331 274.837 196.975 274.996 197.535 275.313C198.105 275.63 198.548 276.069 198.865 276.629C199.192 277.189 199.355 277.838 199.355 278.575C199.355 279.303 199.192 279.952 198.865 280.521C198.548 281.081 198.105 281.524 197.535 281.851C196.966 282.168 196.322 282.327 195.603 282.327ZM195.603 281.445C196.135 281.445 196.607 281.328 197.017 281.095C197.428 280.852 197.75 280.516 197.983 280.087C198.226 279.648 198.347 279.144 198.347 278.575C198.347 277.996 198.226 277.492 197.983 277.063C197.75 276.634 197.428 276.302 197.017 276.069C196.607 275.826 196.14 275.705 195.617 275.705C195.095 275.705 194.628 275.826 194.217 276.069C193.807 276.302 193.48 276.634 193.237 277.063C192.995 277.492 192.873 277.996 192.873 278.575C192.873 279.144 192.995 279.648 193.237 280.087C193.48 280.516 193.807 280.852 194.217 281.095C194.628 281.328 195.09 281.445 195.603 281.445ZM205.137 274.837C205.734 274.837 206.257 274.954 206.705 275.187C207.162 275.411 207.517 275.756 207.769 276.223C208.03 276.69 208.161 277.278 208.161 277.987V282.257H207.167V278.085C207.167 277.31 206.971 276.727 206.579 276.335C206.196 275.934 205.655 275.733 204.955 275.733C204.432 275.733 203.975 275.84 203.583 276.055C203.2 276.26 202.901 276.564 202.687 276.965C202.481 277.357 202.379 277.833 202.379 278.393V282.257H201.385V274.907H202.337V276.923L202.183 276.545C202.416 276.013 202.789 275.598 203.303 275.299C203.816 274.991 204.427 274.837 205.137 274.837ZM212.82 282.327C212.213 282.327 211.639 282.243 211.098 282.075C210.556 281.898 210.132 281.678 209.824 281.417L210.272 280.633C210.57 280.857 210.953 281.053 211.42 281.221C211.886 281.38 212.376 281.459 212.89 281.459C213.59 281.459 214.094 281.352 214.402 281.137C214.71 280.913 214.864 280.619 214.864 280.255C214.864 279.984 214.775 279.774 214.598 279.625C214.43 279.466 214.206 279.35 213.926 279.275C213.646 279.191 213.333 279.121 212.988 279.065C212.642 279.009 212.297 278.944 211.952 278.869C211.616 278.794 211.308 278.687 211.028 278.547C210.748 278.398 210.519 278.197 210.342 277.945C210.174 277.693 210.09 277.357 210.09 276.937C210.09 276.536 210.202 276.176 210.426 275.859C210.65 275.542 210.976 275.294 211.406 275.117C211.844 274.93 212.376 274.837 213.002 274.837C213.478 274.837 213.954 274.902 214.43 275.033C214.906 275.154 215.298 275.318 215.606 275.523L215.172 276.321C214.845 276.097 214.495 275.938 214.122 275.845C213.748 275.742 213.375 275.691 213.002 275.691C212.339 275.691 211.849 275.808 211.532 276.041C211.224 276.265 211.07 276.554 211.07 276.909C211.07 277.189 211.154 277.408 211.322 277.567C211.499 277.726 211.728 277.852 212.008 277.945C212.297 278.029 212.61 278.099 212.946 278.155C213.291 278.211 213.632 278.281 213.968 278.365C214.313 278.44 214.626 278.547 214.906 278.687C215.195 278.818 215.424 279.009 215.592 279.261C215.769 279.504 215.858 279.826 215.858 280.227C215.858 280.656 215.736 281.03 215.494 281.347C215.26 281.655 214.915 281.898 214.458 282.075C214.01 282.243 213.464 282.327 212.82 282.327Z" fill="white"/>
<rect opacity="0.5" x="0.5" y="0.5" width="314" height="300" rx="19.5" stroke="url(#paint0_linear_9_122)"/>
<defs>
<filter id="filter0_d_9_122" x="7.74285" y="9.5721" width="286.314" height="186.371" filterUnits="userSpaceOnUse" color-interpolation-filters="sRGB">
<feFlood flood-opacity="0" result="BackgroundImageFix"/>
<feColorMatrix in="SourceAlpha" type="matrix" values="0 0 0 0 0 0 0 0 0 0 0 0 0 0 0 0 0 0 127 0" result="hardAlpha"/>
<feOffset dy="4"/>
<feGaussianBlur stdDeviation="4.4"/>
<feComposite in2="hardAlpha" operator="out"/>
<feColorMatrix type="matrix" values="0 0 0 0 0 0 0 0 0 0.0784314 0 0 0 0 0.207843 0 0 0 0.77 0"/>
<feBlend mode="normal" in2="BackgroundImageFix" result="effect1_dropShadow_9_122"/>
<feBlend mode="normal" in="SourceGraphic" in2="effect1_dropShadow_9_122" result="shape"/>
</filter>
<filter id="filter1_d_9_122" x="50.3428" y="34.1721" width="217.4" height="103.4" filterUnits="userSpaceOnUse" color-interpolation-filters="sRGB">
<feFlood flood-opacity="0" result="BackgroundImageFix"/>
<feColorMatrix in="SourceAlpha" type="matrix" values="0 0 0 0 0 0 0 0 0 0 0 0 0 0 0 0 0 0 127 0" result="hardAlpha"/>
<feOffset dy="-3"/>
<feGaussianBlur stdDeviation="3.1"/>
<feComposite in2="hardAlpha" operator="out"/>
<feColorMatrix type="matrix" values="0 0 0 0 0 0 0 0 0 0.138 0 0 0 0 0.36 0 0 0 0.42 0"/>
<feBlend mode="normal" in2="BackgroundImageFix" result="effect1_dropShadow_9_122"/>
<feBlend mode="normal" in="SourceGraphic" in2="effect1_dropShadow_9_122" result="shape"/>
</filter>
<filter id="filter2_d_9_122" x="158.5" y="22.0718" width="152.786" height="221.943" filterUnits="userSpaceOnUse" color-interpolation-filters="sRGB">
<feFlood flood-opacity="0" result="BackgroundImageFix"/>
<feColorMatrix in="SourceAlpha" type="matrix" values="0 0 0 0 0 0 0 0 0 0 0 0 0 0 0 0 0 0 127 0" result="hardAlpha"/>
<feOffset dx="-4" dy="6"/>
<feGaussianBlur stdDeviation="5.75"/>
<feComposite in2="hardAlpha" operator="out"/>
<feColorMatrix type="matrix" values="0 0 0 0 0 0 0 0 0 0.0325731 0 0 0 0 0.0870833 0 0 0 0.2 0"/>
<feBlend mode="normal" in2="BackgroundImageFix" result="effect1_dropShadow_9_122"/>
<feBlend mode="normal" in="SourceGraphic" in2="effect1_dropShadow_9_122" result="shape"/>
</filter>
<filter id="filter3_d_9_122" x="177.274" y="28.7938" width="123.24" height="86.2931" filterUnits="userSpaceOnUse" color-interpolation-filters="sRGB">
<feFlood flood-opacity="0" result="BackgroundImageFix"/>
<feColorMatrix in="SourceAlpha" type="matrix" values="0 0 0 0 0 0 0 0 0 0 0 0 0 0 0 0 0 0 127 0" result="hardAlpha"/>
<feOffset dy="-3"/>
<feGaussianBlur stdDeviation="3.1"/>
<feComposite in2="hardAlpha" operator="out"/>
<feColorMatrix type="matrix" values="0 0 0 0 0 0 0 0 0 0.138 0 0 0 0 0.36 0 0 0 0.42 0"/>
<feBlend mode="normal" in2="BackgroundImageFix" result="effect1_dropShadow_9_122"/>
<feBlend mode="normal" in="SourceGraphic" in2="effect1_dropShadow_9_122" result="shape"/>
</filter>
<linearGradient id="paint0_linear_9_122" x1="157.5" y1="8.9705e-06" x2="157.5" y2="301" gradientUnits="userSpaceOnUse">
<stop stop-color="#2246EE"/>
<stop offset="1" stop-color="#2B7FFF"/>
</linearGradient>
<clipPath id="clip0_9_122">
<rect x="16.5428" y="14.3721" width="268.714" height="168.771" rx="10" fill="white"/>
</clipPath>
</defs>
</svg>
