<svg width="17" height="17" viewBox="0 0 17 17" fill="none" xmlns="http://www.w3.org/2000/svg">
<path d="M14.7412 10.9L14.7866 10.7199C15.3702 8.40751 14.7571 5.85758 12.9498 4.05024C11.143 2.24342 8.5939 1.6302 6.28204 2.21289L6.10181 2.25832L5.93566 2.17498C5.83547 2.12472 5.73626 2.07668 5.63814 2.03089L14.7412 10.9ZM14.7412 10.9L14.8244 11.0662M14.7412 10.9L14.8244 11.0662M14.8244 11.0662C14.8736 11.1645 14.9208 11.262 14.9659 11.3586M14.8244 11.0662L11.3055 15.7346M11.3055 15.7346C12.0414 16.0493 12.7557 16.2548 13.4062 16.3038C14.1492 16.3598 14.9231 16.2158 15.4849 15.654C16.0467 15.0923 16.1908 14.3183 16.1347 13.5753C16.0784 12.8287 15.8161 11.9981 15.419 11.1472L14.9659 11.3586M11.3055 15.7346L11.3033 15.7356L11.3055 15.7346ZM14.9659 11.3586C15.3487 12.1788 15.586 12.9482 15.6361 13.6128L15.6361 13.6129C15.6862 14.2773 15.5507 14.8811 15.1314 15.3005C14.712 15.7199 14.1082 15.8553 13.4438 15.8053C12.8658 15.7616 12.207 15.5763 11.5021 15.2749L11.3265 15.1998C11.2622 15.1708 11.1976 15.141 11.1328 15.1103L11.1327 15.1102C9.50235 14.3385 7.60984 12.9669 5.82014 11.1772L5.46658 11.5308L5.82013 11.1772C4.03229 9.3894 2.66168 7.49898 1.88948 5.86979M14.9659 11.3586L1.69632 1.86544C1.27694 2.28482 1.14143 2.88862 1.19154 3.55304C1.23524 4.1324 1.42136 4.79293 1.72406 5.49966L1.79343 5.6616C1.82443 5.73072 1.85646 5.80012 1.88948 5.86979M1.88948 5.86979L1.43767 6.08395L1.88948 5.86979ZM3.42152 0.862079L3.38392 1.36066C2.7195 1.31055 2.1157 1.44606 1.69632 1.86543L3.42152 0.862079ZM3.42152 0.862079L3.38392 1.36066C4.04856 1.41079 4.81793 1.64813 5.63813 2.03089L3.42152 0.862079ZM11.9846 14.836L12.6951 14.1922C12.7815 14.1139 12.8665 14.033 12.9498 13.9497C13.3255 13.5739 13.6493 13.1666 13.9214 12.7363L14.5266 11.7794L14.8262 12.8712C14.9039 13.1546 14.953 13.42 14.9713 13.663M11.9846 14.836L13.4939 15.1404C14.0541 15.1827 14.4308 15.0582 14.66 14.8291C14.8891 14.5999 15.0136 14.2233 14.9713 13.663M11.9846 14.836L12.9192 15.05C13.1213 15.0963 13.3135 15.1268 13.4939 15.1404L13.5203 14.7902M11.9846 14.836L13.6654 14.6483C13.6596 14.6482 13.6538 14.6481 13.648 14.6479C13.6111 14.6469 13.5723 14.6449 13.5315 14.6418M14.9713 13.663L14.4748 13.7004M14.9713 13.663C14.9713 13.663 14.9713 13.663 14.9713 13.663L14.4748 13.7004M14.4748 13.7004C14.4742 13.7013 14.4736 13.7022 14.4729 13.703C14.4729 13.7022 14.4728 13.7014 14.4728 13.7006C14.4573 13.496 14.4152 13.2628 14.344 13.0035M14.4748 13.7004C14.5772 13.5597 14.6745 13.4164 14.7666 13.2708L14.344 13.0035M14.344 13.0035L13.8618 13.1358C13.905 13.2933 13.9351 13.4354 13.9541 13.562C14.0935 13.3805 14.2234 13.1942 14.344 13.0035ZM13.5315 14.6418C13.38 14.6304 13.2128 14.6043 13.0308 14.5627M13.5315 14.6418L13.5203 14.7902M13.5315 14.6418L13.5203 14.7902M13.0308 14.5627C13.1233 14.4789 13.2142 14.3924 13.3033 14.3033C13.3593 14.2473 13.4142 14.1906 13.4681 14.1333C13.3701 14.1215 13.2616 14.1026 13.1425 14.0753L13.13 14.1299L13.0308 14.5627ZM13.0308 14.5627L13.3666 14.9332C13.4183 14.8863 13.4695 14.8387 13.5203 14.7902M1.94814 4.08361L2.16324 5.017L2.80605 4.30688C2.88486 4.21982 2.96626 4.13424 3.05025 4.05024C3.42674 3.67376 3.83496 3.34947 4.26609 3.07709L5.22235 2.47293L4.13189 2.17236C3.84617 2.09361 3.57865 2.04391 3.3338 2.02544L3.33378 2.02544C2.77349 1.98319 2.39687 2.1077 2.16772 2.33684L2.52127 2.6904L2.16772 2.33684C1.93858 2.56599 1.81406 2.94262 1.85632 3.5029C1.87006 3.68507 1.90105 3.87931 1.94814 4.08361ZM3.05026 13.9497L3.05025 13.9497C1.64555 12.545 0.962299 10.6918 1.00154 8.8501C1.86409 10.1631 2.96368 11.5028 4.22915 12.7682C5.49583 14.0349 6.83688 15.1355 8.1512 15.9984C6.30907 16.038 4.45529 15.3548 3.05026 13.9497Z" fill="#2448FC" stroke="white"/>
</svg>
